<svg width="190" height="36" viewBox="0 0 190 36" fill="none" xmlns="http://www.w3.org/2000/svg">
<path d="M8.56534 29H0.0426136L3.66477 7.18182H11.8466C14.0909 7.18182 15.9659 7.63281 17.4716 8.5348C18.9773 9.43679 20.0462 10.7259 20.6783 12.402C21.3104 14.0781 21.4347 16.0739 21.0511 18.3892C20.6818 20.6193 19.9325 22.5263 18.8033 24.1101C17.6811 25.6939 16.2464 26.9048 14.4993 27.7429C12.7592 28.581 10.7813 29 8.56534 29ZM6.79688 23.9716H8.94886C10.0284 23.9716 10.9908 23.7834 11.8359 23.407C12.6882 23.0234 13.3984 22.3842 13.9666 21.4893C14.5419 20.5874 14.9574 19.3551 15.2131 17.7926C15.4545 16.3153 15.4474 15.1754 15.1918 14.3729C14.9361 13.5632 14.4496 13.0021 13.7322 12.6896C13.0149 12.37 12.0881 12.2102 10.9517 12.2102H8.7571L6.79688 23.9716ZM21.7446 29L25.3667 7.18182H41.0912L40.2815 11.9545H30.4804L29.8838 15.7045H38.8752L38.0656 20.4773H29.0741L28.4775 24.2273H38.236L37.4264 29H21.7446ZM62.7132 15.3636H56.7899C56.8325 14.8594 56.8041 14.4048 56.7047 14C56.6053 13.5952 56.4348 13.2472 56.1933 12.956C55.9518 12.6577 55.6358 12.4304 55.2452 12.2741C54.8545 12.1179 54.3893 12.0398 53.8496 12.0398C52.8126 12.0398 51.8858 12.299 51.069 12.8175C50.2523 13.3288 49.574 14.0639 49.0342 15.0227C48.4945 15.9744 48.1109 17.1108 47.8837 18.4318C47.6848 19.7102 47.6777 20.772 47.8624 21.6172C48.0541 22.4624 48.427 23.0945 48.981 23.5135C49.542 23.9325 50.27 24.142 51.1649 24.142C51.7615 24.142 52.3084 24.071 52.8055 23.929C53.3098 23.7869 53.7572 23.5845 54.1479 23.3217C54.5456 23.0518 54.883 22.7322 55.1599 22.3629C55.444 21.9865 55.6607 21.571 55.8098 21.1165H61.7757C61.5484 22.0398 61.1436 22.9844 60.5612 23.9503C59.9788 24.9091 59.226 25.7933 58.3027 26.603C57.3794 27.4055 56.2928 28.0554 55.0428 28.5526C53.7928 29.0497 52.3865 29.2983 50.824 29.2983C48.7786 29.2983 47.0136 28.8509 45.5293 27.956C44.052 27.0611 42.9795 25.7543 42.3119 24.0355C41.6514 22.3168 41.52 20.2216 41.9178 17.75C42.3155 15.3636 43.1003 13.3643 44.2722 11.7521C45.444 10.1399 46.868 8.92543 48.5442 8.10866C50.2203 7.2919 52.003 6.88352 53.8922 6.88352C55.3197 6.88352 56.5982 7.07173 57.7274 7.44815C58.8638 7.82457 59.819 8.375 60.5932 9.09943C61.3744 9.81676 61.9497 10.701 62.319 11.7521C62.6884 12.8033 62.8197 14.0071 62.7132 15.3636ZM85.7468 18.4744C85.3491 20.8466 84.5608 22.8352 83.3818 24.4403C82.2028 26.0455 80.7717 27.2564 79.0885 28.0732C77.4052 28.8899 75.6048 29.2983 73.6872 29.2983C71.6417 29.2983 69.8662 28.8544 68.3605 27.9666C66.8548 27.0788 65.7575 25.7791 65.0686 24.0675C64.3797 22.3558 64.2412 20.2642 64.6531 17.7926C65.0366 15.4205 65.8179 13.4247 66.9968 11.8054C68.1758 10.1861 69.614 8.96094 71.3115 8.12997C73.0089 7.29901 74.8235 6.88352 76.7554 6.88352C78.7866 6.88352 80.5515 7.33097 82.0501 8.22585C83.5558 9.12074 84.6495 10.4311 85.3314 12.157C86.0203 13.8828 86.1588 15.9886 85.7468 18.4744ZM79.7809 17.7926C79.9798 16.5426 79.994 15.4915 79.8235 14.6392C79.6531 13.7798 79.2944 13.1335 78.7475 12.7003C78.2007 12.2599 77.4656 12.0398 76.5423 12.0398C75.4912 12.0398 74.5608 12.2955 73.7511 12.8068C72.9414 13.3182 72.2703 14.0533 71.7376 15.0121C71.2049 15.9709 70.8321 17.125 70.619 18.4744C70.3917 19.7386 70.3704 20.7898 70.5551 21.6278C70.7468 22.4659 71.1233 23.0945 71.6843 23.5135C72.2525 23.9325 72.9912 24.142 73.9002 24.142C74.9372 24.142 75.8534 23.8935 76.6488 23.3963C77.4514 22.8991 78.1154 22.1783 78.641 21.2337C79.1737 20.2891 79.5537 19.142 79.7809 17.7926ZM94.963 29H86.4403L90.0624 7.18182H98.2443C100.489 7.18182 102.364 7.63281 103.869 8.5348C105.375 9.43679 106.444 10.7259 107.076 12.402C107.708 14.0781 107.832 16.0739 107.449 18.3892C107.079 20.6193 106.33 22.5263 105.201 24.1101C104.079 25.6939 102.644 26.9048 100.897 27.7429C99.1569 28.581 97.1789 29 94.963 29ZM93.1945 23.9716H95.3465C96.4261 23.9716 97.3884 23.7834 98.2336 23.407C99.0859 23.0234 99.7961 22.3842 100.364 21.4893C100.94 20.5874 101.355 19.3551 101.611 17.7926C101.852 16.3153 101.845 15.1754 101.589 14.3729C101.334 13.5632 100.847 13.0021 100.13 12.6896C99.4126 12.37 98.4857 12.2102 97.3494 12.2102H95.1548L93.1945 23.9716ZM108.142 29L111.764 7.18182H127.489L126.679 11.9545H116.878L116.281 15.7045H125.273L124.463 20.4773H115.472L114.875 24.2273H124.634L123.824 29H108.142ZM129.913 29.3409C129.082 29.3409 128.404 29.0533 127.879 28.478C127.36 27.8956 127.144 27.1889 127.229 26.358C127.314 25.5483 127.68 24.8558 128.326 24.2805C128.979 23.7053 129.722 23.4176 130.553 23.4176C131.341 23.4176 131.998 23.7053 132.524 24.2805C133.056 24.8558 133.28 25.5483 133.195 26.358C133.138 26.9119 132.943 27.4162 132.609 27.8707C132.282 28.3182 131.877 28.6768 131.394 28.9467C130.918 29.2095 130.425 29.3409 129.913 29.3409ZM135.579 29L139.201 7.18182H145.125L142.312 24.2273H151.133L150.324 29H135.579ZM157.02 29.2557C155.983 29.2557 155.092 29.0852 154.346 28.7443C153.608 28.3963 153.068 27.8707 152.727 27.1676C152.393 26.4574 152.319 25.5625 152.503 24.483C152.652 23.5881 152.933 22.8246 153.345 22.1925C153.757 21.5604 154.268 21.0419 154.879 20.6371C155.49 20.2322 156.175 19.9233 156.935 19.7102C157.702 19.4901 158.512 19.348 159.364 19.2841C160.287 19.2131 161.037 19.1243 161.612 19.0178C162.187 18.9112 162.617 18.7656 162.901 18.581C163.185 18.3963 163.356 18.1477 163.412 17.8352V17.7926C163.476 17.3665 163.363 17.0398 163.071 16.8125C162.787 16.5852 162.39 16.4716 161.878 16.4716C161.324 16.4716 160.845 16.5923 160.44 16.8338C160.042 17.0753 159.769 17.4517 159.62 17.9631H154.208C154.435 16.9687 154.9 16.0526 155.603 15.2145C156.314 14.3693 157.255 13.6946 158.427 13.1903C159.606 12.679 161.012 12.4233 162.645 12.4233C163.81 12.4233 164.833 12.5618 165.713 12.8388C166.594 13.1087 167.322 13.4886 167.897 13.9787C168.48 14.4616 168.888 15.0298 169.123 15.6832C169.364 16.3295 169.421 17.0327 169.293 17.7926L167.418 29H161.921L162.304 26.6989H162.177C161.75 27.3097 161.271 27.8033 160.738 28.1797C160.213 28.5561 159.637 28.8295 159.012 29C158.395 29.1705 157.731 29.2557 157.02 29.2557ZM159.577 25.5483C160.017 25.5483 160.451 25.456 160.877 25.2713C161.303 25.0866 161.669 24.8203 161.974 24.4723C162.28 24.1243 162.475 23.7017 162.56 23.2045L162.773 21.8409C162.617 21.9048 162.443 21.9652 162.251 22.022C162.066 22.0717 161.871 22.1214 161.665 22.1712C161.466 22.2209 161.253 22.267 161.026 22.3097C160.806 22.3523 160.579 22.3949 160.344 22.4375C159.875 22.5085 159.481 22.6257 159.162 22.7891C158.842 22.9453 158.593 23.1406 158.416 23.375C158.238 23.6023 158.128 23.858 158.086 24.142C158.022 24.5895 158.125 24.9375 158.395 25.1861C158.672 25.4276 159.066 25.5483 159.577 25.5483ZM169.843 29L173.465 7.18182H179.345L177.982 15.4915H178.067C178.365 14.9375 178.76 14.4297 179.25 13.968C179.74 13.4993 180.315 13.1264 180.975 12.8494C181.636 12.5653 182.371 12.4233 183.181 12.4233C184.26 12.4233 185.237 12.7109 186.11 13.2862C186.991 13.8615 187.634 14.767 188.039 16.0028C188.451 17.2386 188.493 18.8437 188.166 20.8182C187.854 22.7074 187.3 24.2734 186.505 25.5163C185.709 26.7592 184.772 27.6861 183.692 28.2969C182.613 28.9077 181.49 29.2131 180.326 29.2131C179.559 29.2131 178.894 29.0888 178.333 28.8402C177.779 28.5845 177.328 28.2401 176.98 27.8068C176.639 27.3665 176.405 26.8693 176.277 26.3153H176.107L175.681 29H169.843ZM176.959 20.8182C176.831 21.6136 176.824 22.3026 176.938 22.8849C177.051 23.4602 177.275 23.9077 177.609 24.2273C177.943 24.5398 178.38 24.696 178.919 24.696C179.459 24.696 179.946 24.5433 180.379 24.2379C180.812 23.9254 181.178 23.4815 181.476 22.9062C181.774 22.3239 181.988 21.6278 182.115 20.8182C182.243 20.0085 182.254 19.3161 182.147 18.7408C182.041 18.1584 181.824 17.7145 181.497 17.4091C181.171 17.0966 180.738 16.9403 180.198 16.9403C179.658 16.9403 179.168 17.0966 178.728 17.4091C178.287 17.7145 177.914 18.1584 177.609 18.7408C177.304 19.3161 177.087 20.0085 176.959 20.8182Z" fill="black"/>
</svg>
