<svg width="382" height="50" viewBox="0 0 382 50" fill="none" xmlns="http://www.w3.org/2000/svg">
<mask id="path-1-outside-1_9_348" maskUnits="userSpaceOnUse" x="0" y="0" width="382" height="50" fill="black">
<rect fill="white" width="382" height="50"/>
<path d="M20.1307 47H3.08523L10.3295 3.36364H26.6932C31.1818 3.36364 34.9318 4.26562 37.9432 6.0696C40.9545 7.87358 43.0923 10.4517 44.3565 13.804C45.6207 17.1562 45.8693 21.1477 45.1023 25.7784C44.3636 30.2386 42.8651 34.0526 40.6065 37.2202C38.3622 40.3878 35.4929 42.8097 31.9986 44.4858C28.5185 46.1619 24.5625 47 20.1307 47ZM16.5938 36.9432H20.8977C23.0568 36.9432 24.9815 36.5668 26.6719 35.8139C28.3764 35.0469 29.7969 33.7685 30.9332 31.9787C32.0838 30.1747 32.9148 27.7102 33.4261 24.5852C33.9091 21.6307 33.8949 19.3509 33.3835 17.7457C32.8722 16.1264 31.8991 15.0043 30.4645 14.3793C29.0298 13.7401 27.1761 13.4205 24.9034 13.4205H20.5142L16.5938 36.9432ZM46.4891 47L53.7335 3.36364H85.1823L83.563 12.9091H63.9607L62.7675 20.4091H80.7505L79.1312 29.9545H61.1482L59.955 37.4545H79.4721L77.8528 47H46.4891ZM128.426 19.7273H116.58C116.665 18.7187 116.608 17.8097 116.409 17C116.211 16.1903 115.87 15.4943 115.387 14.9119C114.904 14.3153 114.272 13.8608 113.49 13.5483C112.709 13.2358 111.779 13.0795 110.699 13.0795C108.625 13.0795 106.772 13.598 105.138 14.6349C103.505 15.6577 102.148 17.1278 101.068 19.0455C99.9889 20.9489 99.2219 23.2216 98.7673 25.8636C98.3696 28.4205 98.3554 30.544 98.7247 32.2344C99.1082 33.9247 99.854 35.1889 100.962 36.027C102.084 36.8651 103.54 37.2841 105.33 37.2841C106.523 37.2841 107.617 37.142 108.611 36.858C109.62 36.5739 110.514 36.169 111.296 35.6435C112.091 35.1037 112.766 34.4645 113.32 33.7259C113.888 32.973 114.321 32.142 114.62 31.233H126.551C126.097 33.0795 125.287 34.9687 124.122 36.9006C122.958 38.8182 121.452 40.5866 119.605 42.206C117.759 43.8111 115.586 45.1108 113.086 46.1051C110.586 47.0994 107.773 47.5966 104.648 47.5966C100.557 47.5966 97.0273 46.7017 94.0585 44.9119C91.104 43.1222 88.9591 40.5085 87.6239 37.071C86.3028 33.6335 86.0401 29.4432 86.8355 24.5C87.631 19.7273 89.2006 15.7287 91.5443 12.5043C93.8881 9.27983 96.7361 6.85085 100.088 5.21733C103.441 3.58381 107.006 2.76704 110.784 2.76704C113.639 2.76704 116.196 3.14346 118.455 3.8963C120.728 4.64915 122.638 5.75 124.186 7.19886C125.749 8.63352 126.899 10.402 127.638 12.5043C128.377 14.6065 128.639 17.0142 128.426 19.7273ZM174.494 25.9489C173.698 30.6932 172.122 34.6705 169.764 37.8807C167.406 41.0909 164.543 43.5128 161.177 45.1463C157.81 46.7798 154.21 47.5966 150.374 47.5966C146.283 47.5966 142.732 46.7088 139.721 44.9332C136.71 43.1577 134.515 40.5582 133.137 37.1349C131.759 33.7116 131.482 29.5284 132.306 24.5852C133.073 19.8409 134.636 15.8494 136.994 12.6108C139.352 9.37216 142.228 6.92188 145.623 5.25994C149.018 3.59801 152.647 2.76704 156.511 2.76704C160.573 2.76704 164.103 3.66193 167.1 5.4517C170.112 7.24148 172.299 9.86221 173.663 13.3139C175.041 16.7656 175.318 20.9773 174.494 25.9489ZM162.562 24.5852C162.96 22.0852 162.988 19.983 162.647 18.2784C162.306 16.5597 161.589 15.267 160.495 14.4006C159.401 13.5199 157.931 13.0795 156.085 13.0795C153.982 13.0795 152.122 13.5909 150.502 14.6136C148.883 15.6364 147.541 17.1065 146.475 19.0241C145.41 20.9418 144.664 23.25 144.238 25.9489C143.783 28.4773 143.741 30.5795 144.11 32.2557C144.494 33.9318 145.247 35.1889 146.369 36.027C147.505 36.8651 148.982 37.2841 150.8 37.2841C152.874 37.2841 154.707 36.7869 156.298 35.7926C157.903 34.7983 159.231 33.3565 160.282 31.4673C161.347 29.5781 162.107 27.2841 162.562 24.5852ZM192.926 47H175.881L183.125 3.36364H199.489C203.977 3.36364 207.727 4.26562 210.739 6.0696C213.75 7.87358 215.888 10.4517 217.152 13.804C218.416 17.1562 218.665 21.1477 217.898 25.7784C217.159 30.2386 215.66 34.0526 213.402 37.2202C211.158 40.3878 208.288 42.8097 204.794 44.4858C201.314 46.1619 197.358 47 192.926 47ZM189.389 36.9432H193.693C195.852 36.9432 197.777 36.5668 199.467 35.8139C201.172 35.0469 202.592 33.7685 203.729 31.9787C204.879 30.1747 205.71 27.7102 206.221 24.5852C206.704 21.6307 206.69 19.3509 206.179 17.7457C205.667 16.1264 204.694 15.0043 203.26 14.3793C201.825 13.7401 199.971 13.4205 197.699 13.4205H193.31L189.389 36.9432ZM219.284 47L226.529 3.36364H257.978L256.358 12.9091H236.756L235.563 20.4091H253.546L251.926 29.9545H233.944L232.75 37.4545H252.267L250.648 47H219.284ZM262.827 47.6818C261.165 47.6818 259.808 47.1065 258.757 45.956C257.72 44.7912 257.287 43.3778 257.458 41.7159C257.628 40.0966 258.36 38.7116 259.652 37.5611C260.959 36.4105 262.443 35.8352 264.105 35.8352C265.682 35.8352 266.996 36.4105 268.047 37.5611C269.112 38.7116 269.56 40.0966 269.389 41.7159C269.276 42.8239 268.885 43.8324 268.217 44.7415C267.564 45.6364 266.754 46.3537 265.788 46.8935C264.837 47.419 263.85 47.6818 262.827 47.6818ZM274.159 47L281.403 3.36364H293.25L287.625 37.4545H305.267L303.647 47H274.159ZM317.041 47.5114C314.967 47.5114 313.184 47.1705 311.693 46.4886C310.215 45.7926 309.136 44.7415 308.454 43.3352C307.786 41.9148 307.637 40.125 308.006 37.9659C308.305 36.1761 308.866 34.6491 309.69 33.3849C310.514 32.1207 311.536 31.0838 312.758 30.2741C313.979 29.4645 315.35 28.8466 316.87 28.4205C318.404 27.9801 320.024 27.696 321.728 27.5682C323.575 27.4261 325.073 27.2486 326.224 27.0355C327.374 26.8224 328.234 26.5312 328.802 26.1619C329.37 25.7926 329.711 25.2955 329.825 24.6705V24.5852C329.952 23.733 329.725 23.0795 329.143 22.625C328.575 22.1705 327.779 21.9432 326.756 21.9432C325.649 21.9432 324.69 22.1847 323.88 22.6676C323.085 23.1506 322.538 23.9034 322.239 24.9261H311.416C311.87 22.9375 312.801 21.1051 314.207 19.429C315.627 17.7386 317.509 16.3892 319.853 15.3807C322.211 14.358 325.024 13.8466 328.291 13.8466C330.62 13.8466 332.666 14.1236 334.427 14.6776C336.188 15.2173 337.644 15.9773 338.795 16.9574C339.96 17.9233 340.776 19.0597 341.245 20.3665C341.728 21.6591 341.842 23.0653 341.586 24.5852L337.836 47H326.842L327.609 42.3977H327.353C326.501 43.6193 325.542 44.6065 324.477 45.3594C323.426 46.1122 322.275 46.6591 321.025 47C319.789 47.3409 318.461 47.5114 317.041 47.5114ZM322.154 40.0966C323.035 40.0966 323.901 39.9119 324.754 39.5426C325.606 39.1733 326.337 38.6406 326.948 37.9446C327.559 37.2486 327.95 36.4034 328.12 35.4091L328.546 32.6818C328.234 32.8097 327.886 32.9304 327.502 33.044C327.133 33.1435 326.742 33.2429 326.33 33.3423C325.933 33.4418 325.506 33.5341 325.052 33.6193C324.612 33.7045 324.157 33.7898 323.688 33.875C322.751 34.017 321.962 34.2514 321.323 34.5781C320.684 34.8906 320.187 35.2812 319.832 35.75C319.477 36.2045 319.256 36.7159 319.171 37.2841C319.043 38.179 319.249 38.875 319.789 39.3722C320.343 39.8551 321.131 40.0966 322.154 40.0966ZM342.685 47L349.93 3.36364H361.691L358.964 19.983H359.134C359.731 18.875 360.519 17.8594 361.499 16.9361C362.479 15.9986 363.63 15.2528 364.951 14.6989C366.272 14.1307 367.742 13.8466 369.361 13.8466C371.52 13.8466 373.474 14.4219 375.221 15.5724C376.982 16.723 378.268 18.5341 379.077 21.0057C379.901 23.4773 379.986 26.6875 379.333 30.6364C378.708 34.4148 377.6 37.5469 376.009 40.0327C374.418 42.5185 372.543 44.3722 370.384 45.5938C368.225 46.8153 365.981 47.4261 363.651 47.4261C362.117 47.4261 360.789 47.1776 359.667 46.6804C358.559 46.169 357.657 45.4801 356.961 44.6136C356.279 43.733 355.81 42.7386 355.555 41.6307H355.214L354.361 47H342.685ZM356.918 30.6364C356.663 32.2273 356.648 33.6051 356.876 34.7699C357.103 35.9205 357.55 36.8153 358.218 37.4545C358.886 38.0795 359.759 38.392 360.839 38.392C361.918 38.392 362.891 38.0866 363.758 37.4759C364.624 36.8509 365.356 35.9631 365.952 34.8125C366.549 33.6477 366.975 32.2557 367.231 30.6364C367.486 29.017 367.508 27.6321 367.295 26.4815C367.082 25.3168 366.648 24.429 365.995 23.8182C365.341 23.1932 364.475 22.8807 363.395 22.8807C362.316 22.8807 361.336 23.1932 360.455 23.8182C359.574 24.429 358.829 25.3168 358.218 26.4815C357.607 27.6321 357.174 29.017 356.918 30.6364Z"/>
</mask>
<path d="M3.08523 47L1.11223 46.6725L0.725822 49H3.08523V47ZM10.3295 3.36364V1.36364H8.6342L8.35655 3.03609L10.3295 3.36364ZM37.9432 6.0696L36.9154 7.7853L37.9432 6.0696ZM44.3565 13.804L42.4852 14.5097L42.4852 14.5097L44.3565 13.804ZM45.1023 25.7784L43.1292 25.4516L43.1291 25.4516L45.1023 25.7784ZM40.6065 37.2202L38.9781 36.0591L38.9746 36.0639L40.6065 37.2202ZM31.9986 44.4858L31.1336 42.6825L31.1307 42.6839L31.9986 44.4858ZM16.5938 36.9432L14.621 36.6144L14.2328 38.9432H16.5938V36.9432ZM26.6719 35.8139L27.4856 37.6409L27.4926 37.6378L26.6719 35.8139ZM30.9332 31.9787L29.247 30.9032L29.2448 30.9067L30.9332 31.9787ZM33.4261 24.5852L35.3999 24.9082L35.3999 24.9079L33.4261 24.5852ZM33.3835 17.7457L31.4764 18.348L31.4779 18.3528L33.3835 17.7457ZM30.4645 14.3793L29.6505 16.2061L29.6581 16.2095L29.6657 16.2128L30.4645 14.3793ZM20.5142 13.4205V11.4205H18.82L18.5414 13.0917L20.5142 13.4205ZM20.1307 47V45H3.08523V47V49H20.1307V47ZM3.08523 47L5.05822 47.3275L12.3025 3.69118L10.3295 3.36364L8.35655 3.03609L1.11223 46.6725L3.08523 47ZM10.3295 3.36364V5.36364H26.6932V3.36364V1.36364H10.3295V3.36364ZM26.6932 3.36364V5.36364C30.9191 5.36364 34.2899 6.2125 36.9154 7.7853L37.9432 6.0696L38.971 4.3539C35.5737 2.31875 31.4446 1.36364 26.6932 1.36364V3.36364ZM37.9432 6.0696L36.9154 7.7853C39.5311 9.35228 41.3766 11.5702 42.4852 14.5097L44.3565 13.804L46.2279 13.0983C44.808 9.33325 42.378 6.39488 38.971 4.3539L37.9432 6.0696ZM44.3565 13.804L42.4852 14.5097C43.5925 17.4459 43.8561 21.0633 43.1292 25.4516L45.1023 25.7784L47.0754 26.1052C47.8826 21.2322 47.649 16.8666 46.2279 13.0983L44.3565 13.804ZM45.1023 25.7784L43.1291 25.4516C42.4323 29.6598 41.0331 33.1769 38.9781 36.0591L40.6065 37.2202L42.235 38.3813C44.697 34.9282 46.295 30.8175 47.0754 26.1052L45.1023 25.7784ZM40.6065 37.2202L38.9746 36.0639C36.9265 38.9547 34.3209 41.1537 31.1336 42.6825L31.9986 44.4858L32.8636 46.2891C36.6649 44.4657 39.798 41.8209 42.2384 38.3764L40.6065 37.2202ZM31.9986 44.4858L31.1307 42.6839C27.9586 44.2117 24.3063 45 20.1307 45V47V49C24.8187 49 29.0783 48.1122 32.8664 46.2877L31.9986 44.4858ZM16.5938 36.9432V38.9432H20.8977V36.9432V34.9432H16.5938V36.9432ZM20.8977 36.9432V38.9432C23.2908 38.9432 25.4999 38.5253 27.4856 37.6409L26.6719 35.8139L25.8582 33.9869C24.4631 34.6082 22.8228 34.9432 20.8977 34.9432V36.9432ZM26.6719 35.8139L27.4926 37.6378C29.6 36.6894 31.3048 35.1248 32.6217 33.0507L30.9332 31.9787L29.2448 30.9067C28.289 32.4121 27.1529 33.4043 25.8511 33.9901L26.6719 35.8139ZM30.9332 31.9787L32.6195 33.0542C33.9685 30.939 34.8639 28.1838 35.3999 24.9082L33.4261 24.5852L31.4524 24.2622C30.9657 27.2367 30.1991 29.4104 29.247 30.9032L30.9332 31.9787ZM33.4261 24.5852L35.3999 24.9079C35.9 21.8488 35.9441 19.1944 35.2892 17.1386L33.3835 17.7457L31.4779 18.3528C31.8457 19.5073 31.9182 21.4126 31.4523 24.2626L33.4261 24.5852ZM33.3835 17.7457L35.2907 17.1435C34.6219 15.0258 33.2769 13.4229 31.2633 12.5457L30.4645 14.3793L29.6657 16.2128C30.5214 16.5856 31.1224 17.2271 31.4764 18.348L33.3835 17.7457ZM30.4645 14.3793L31.2784 12.5524C29.4997 11.7599 27.3411 11.4205 24.9034 11.4205V13.4205V15.4205C27.0112 15.4205 28.5599 15.7202 29.6505 16.2061L30.4645 14.3793ZM24.9034 13.4205V11.4205H20.5142V13.4205V15.4205H24.9034V13.4205ZM20.5142 13.4205L18.5414 13.0917L14.621 36.6144L16.5938 36.9432L18.5665 37.272L22.487 13.7493L20.5142 13.4205ZM46.4891 47L44.5161 46.6725L44.1297 49H46.4891V47ZM53.7335 3.36364V1.36364H52.0381L51.7605 3.03609L53.7335 3.36364ZM85.1823 3.36364L87.1541 3.69814L87.5502 1.36364H85.1823V3.36364ZM83.563 12.9091V14.9091H85.2523L85.5348 13.2436L83.563 12.9091ZM63.9607 12.9091V10.9091H62.2538L61.9856 12.5949L63.9607 12.9091ZM62.7675 20.4091L60.7924 20.0949L60.4242 22.4091H62.7675V20.4091ZM80.7505 20.4091L82.7223 20.7436L83.1184 18.4091H80.7505V20.4091ZM79.1312 29.9545V31.9545H80.8205L81.103 30.2891L79.1312 29.9545ZM61.1482 29.9545V27.9545H59.4413L59.1731 29.6403L61.1482 29.9545ZM59.955 37.4545L57.9799 37.1403L57.6117 39.4545H59.955V37.4545ZM79.4721 37.4545L81.4439 37.7891L81.84 35.4545H79.4721V37.4545ZM77.8528 47V49H79.5421L79.8246 47.3345L77.8528 47ZM46.4891 47L48.4621 47.3275L55.7064 3.69118L53.7335 3.36364L51.7605 3.03609L44.5161 46.6725L46.4891 47ZM53.7335 3.36364V5.36364H85.1823V3.36364V1.36364H53.7335V3.36364ZM85.1823 3.36364L83.2105 3.02913L81.5912 12.5746L83.563 12.9091L85.5348 13.2436L87.1541 3.69814L85.1823 3.36364ZM83.563 12.9091V10.9091H63.9607V12.9091V14.9091H83.563V12.9091ZM63.9607 12.9091L61.9856 12.5949L60.7924 20.0949L62.7675 20.4091L64.7427 20.7233L65.9359 13.2233L63.9607 12.9091ZM62.7675 20.4091V22.4091H80.7505V20.4091V18.4091H62.7675V20.4091ZM80.7505 20.4091L78.7787 20.0746L77.1594 29.62L79.1312 29.9545L81.103 30.2891L82.7223 20.7436L80.7505 20.4091ZM79.1312 29.9545V27.9545H61.1482V29.9545V31.9545H79.1312V29.9545ZM61.1482 29.9545L59.1731 29.6403L57.9799 37.1403L59.955 37.4545L61.9302 37.7688L63.1234 30.2688L61.1482 29.9545ZM59.955 37.4545V39.4545H79.4721V37.4545V35.4545H59.955V37.4545ZM79.4721 37.4545L77.5003 37.12L75.8809 46.6655L77.8528 47L79.8246 47.3345L81.4439 37.7891L79.4721 37.4545ZM77.8528 47V45H46.4891V47V49H77.8528V47ZM128.426 19.7273V21.7273H130.276L130.42 19.8839L128.426 19.7273ZM116.58 19.7273L114.587 19.5589L114.404 21.7273H116.58V19.7273ZM116.409 17L114.467 17.477L114.467 17.4771L116.409 17ZM115.387 14.9119L113.832 16.1703L113.84 16.1795L113.847 16.1886L115.387 14.9119ZM113.49 13.5483L112.748 15.4052L113.49 13.5483ZM105.138 14.6349L106.199 16.3301L106.21 16.3235L105.138 14.6349ZM101.068 19.0455L102.808 20.0321L102.811 20.0266L101.068 19.0455ZM98.7673 25.8636L96.7963 25.5245L96.7936 25.5404L96.7911 25.5562L98.7673 25.8636ZM98.7247 32.2344L96.7708 32.6613L96.7725 32.6691L96.7743 32.6769L98.7247 32.2344ZM100.962 36.027L99.7554 37.6221L99.7652 37.6294L100.962 36.027ZM108.611 36.858L108.069 34.9329L108.062 34.9349L108.611 36.858ZM111.296 35.6435L112.412 37.3029L112.419 37.2984L111.296 35.6435ZM113.32 33.7259L111.724 32.521L111.72 32.5258L113.32 33.7259ZM114.62 31.233V29.233H113.171L112.719 30.6094L114.62 31.233ZM126.551 31.233L128.493 31.711L129.103 29.233H126.551V31.233ZM124.122 36.9006L125.832 37.9389L125.835 37.9333L124.122 36.9006ZM119.605 42.206L120.917 43.7154L120.924 43.7097L119.605 42.206ZM113.086 46.1051L112.346 44.2467L113.086 46.1051ZM94.0585 44.9119L93.0223 46.6226L93.0259 46.6247L94.0585 44.9119ZM87.6239 37.071L85.757 37.7885L85.7596 37.7952L87.6239 37.071ZM86.8355 24.5L84.8627 24.1712L84.8609 24.1822L86.8355 24.5ZM100.088 5.21733L100.964 7.01523L100.088 5.21733ZM118.455 3.8963L117.822 5.79367L117.826 5.79485L118.455 3.8963ZM124.186 7.19886L122.82 8.65919L122.827 8.66566L122.834 8.67206L124.186 7.19886ZM127.638 12.5043L129.525 11.8413V11.8413L127.638 12.5043ZM128.426 19.7273V17.7273H116.58V19.7273V21.7273H128.426V19.7273ZM116.58 19.7273L118.573 19.8957C118.672 18.7154 118.612 17.5832 118.352 16.5229L116.409 17L114.467 17.4771C114.604 18.0361 114.658 18.7221 114.587 19.5589L116.58 19.7273ZM116.409 17L118.352 16.523C118.088 15.4501 117.621 14.4732 116.926 13.6353L115.387 14.9119L113.847 16.1886C114.118 16.5154 114.333 16.9306 114.467 17.477L116.409 17ZM115.387 14.9119L116.941 13.6535C116.223 12.7663 115.3 12.1182 114.233 11.6913L113.49 13.5483L112.748 15.4052C113.243 15.6034 113.584 15.8643 113.832 16.1703L115.387 14.9119ZM113.49 13.5483L114.233 11.6913C113.159 11.2618 111.964 11.0795 110.699 11.0795V13.0795V15.0795C111.593 15.0795 112.259 15.2098 112.748 15.4052L113.49 13.5483ZM110.699 13.0795V11.0795C108.274 11.0795 106.043 11.6913 104.066 12.9464L105.138 14.6349L106.21 16.3235C107.5 15.5047 108.976 15.0795 110.699 15.0795V13.0795ZM105.138 14.6349L104.077 12.9398C102.122 14.1636 100.546 15.8973 99.3257 18.0643L101.068 19.0455L102.811 20.0266C103.75 18.3584 104.887 17.1517 106.199 16.3301L105.138 14.6349ZM101.068 19.0455L99.3288 18.0588C98.1129 20.2025 97.2815 22.7044 96.7963 25.5245L98.7673 25.8636L100.738 26.2027C101.162 23.7388 101.865 21.6952 102.808 20.0321L101.068 19.0455ZM98.7673 25.8636L96.7911 25.5562C96.3724 28.2478 96.3294 30.6411 96.7708 32.6613L98.7247 32.2344L100.679 31.8075C100.381 30.4469 100.367 28.5931 100.744 26.171L98.7673 25.8636ZM98.7247 32.2344L96.7743 32.6769C97.2355 34.7097 98.1854 36.4345 99.7554 37.6221L100.962 36.027L102.168 34.4319C101.523 33.9434 100.981 33.1397 100.675 31.7918L98.7247 32.2344ZM100.962 36.027L99.7652 37.6294C101.319 38.7895 103.229 39.2841 105.33 39.2841V37.2841V35.2841C103.851 35.2841 102.85 34.9406 102.159 34.4246L100.962 36.027ZM105.33 37.2841V39.2841C106.681 39.2841 107.963 39.1233 109.161 38.781L108.611 36.858L108.062 34.9349C107.271 35.1608 106.365 35.2841 105.33 35.2841V37.2841ZM108.611 36.858L109.153 38.783C110.343 38.4478 111.436 37.9595 112.412 37.3029L111.296 35.6435L110.179 33.984C109.593 34.3786 108.896 34.6999 108.069 34.9329L108.611 36.858ZM111.296 35.6435L112.419 37.2984C113.39 36.6396 114.228 35.8487 114.92 34.9259L113.32 33.7259L111.72 32.5258C111.304 33.0803 110.793 33.5678 110.173 33.9885L111.296 35.6435ZM113.32 33.7259L114.916 34.9307C115.619 33.9996 116.154 32.9717 116.52 31.8565L114.62 31.233L112.719 30.6094C112.489 31.3124 112.157 31.9465 111.724 32.521L113.32 33.7259ZM114.62 31.233V33.233H126.551V31.233V29.233H114.62V31.233ZM126.551 31.233L124.609 30.7549C124.211 32.3737 123.489 34.0772 122.41 35.8679L124.122 36.9006L125.835 37.9333C127.085 35.8603 127.983 33.7854 128.493 31.711L126.551 31.233ZM124.122 36.9006L122.413 35.8623C121.364 37.5901 119.995 39.2046 118.287 40.7022L119.605 42.206L120.924 43.7097C122.909 41.9687 124.552 40.0463 125.832 37.9389L124.122 36.9006ZM119.605 42.206L118.293 40.6965C116.633 42.1399 114.658 43.3274 112.346 44.2467L113.086 46.1051L113.825 47.9635C116.513 46.8942 118.885 45.4823 120.917 43.7154L119.605 42.206ZM113.086 46.1051L112.346 44.2467C110.116 45.1337 107.56 45.5966 104.648 45.5966V47.5966V49.5966C107.986 49.5966 111.055 49.0652 113.825 47.9635L113.086 46.1051ZM104.648 47.5966V45.5966C100.855 45.5966 97.696 44.7695 95.0911 43.1991L94.0585 44.9119L93.0259 46.6247C96.3585 48.6339 100.259 49.5966 104.648 49.5966V47.5966ZM94.0585 44.9119L95.0948 43.2013C92.5438 41.656 90.6752 39.4029 89.4882 36.3469L87.6239 37.071L85.7596 37.7952C87.243 41.6142 89.6642 44.5883 93.0223 46.6225L94.0585 44.9119ZM87.6239 37.071L89.4908 36.3536C88.3339 33.3433 88.0514 29.5328 88.8101 24.8178L86.8355 24.5L84.8609 24.1822C84.0288 29.3535 84.2718 33.9237 85.757 37.7885L87.6239 37.071ZM86.8355 24.5L88.8083 24.8288C89.5635 20.2976 91.0357 16.6056 93.1621 13.6802L91.5443 12.5043L89.9265 11.3283C87.3654 14.8518 85.6984 19.1569 84.8627 24.1712L86.8355 24.5ZM91.5443 12.5043L93.1621 13.6802C95.3269 10.7019 97.9268 8.49544 100.964 7.01523L100.088 5.21733L99.2123 3.41943C95.5454 5.20626 92.4492 7.85777 89.9265 11.3283L91.5443 12.5043ZM100.088 5.21733L100.964 7.01523C104.04 5.5165 107.305 4.76704 110.784 4.76704V2.76704V0.767044C106.707 0.767044 102.841 1.65111 99.2123 3.41943L100.088 5.21733ZM110.784 2.76704V4.76704C113.466 4.76704 115.804 5.1208 117.822 5.79367L118.455 3.8963L119.087 1.99894C116.589 1.16613 113.813 0.767044 110.784 0.767044V2.76704ZM118.455 3.8963L117.826 5.79485C119.86 6.46848 121.509 7.43213 122.82 8.65919L124.186 7.19886L125.553 5.73853C123.768 4.06787 121.596 2.82981 119.084 1.99775L118.455 3.8963ZM124.186 7.19886L122.834 8.67206C124.142 9.8733 125.116 11.3586 125.751 13.1672L127.638 12.5043L129.525 11.8413C128.683 9.44533 127.356 7.39374 125.539 5.72567L124.186 7.19886ZM127.638 12.5043L125.751 13.1672C126.379 14.9553 126.629 17.0753 126.433 19.5707L128.426 19.7273L130.42 19.8839C130.65 16.9531 130.374 14.2577 129.525 11.8413L127.638 12.5043ZM174.494 25.9489L176.466 26.2796L176.467 26.2758L174.494 25.9489ZM169.764 37.8807L168.152 36.6967V36.6967L169.764 37.8807ZM161.177 45.1463L162.05 46.9457L161.177 45.1463ZM139.721 44.9332L140.737 43.2104L139.721 44.9332ZM133.137 37.1349L134.992 36.3882L133.137 37.1349ZM132.306 24.5852L134.279 24.914L134.281 24.9044L132.306 24.5852ZM136.994 12.6108L135.377 11.4336L136.994 12.6108ZM145.623 5.25994L144.744 3.46364L145.623 5.25994ZM167.1 5.4517L166.075 7.16884L166.078 7.17097L167.1 5.4517ZM173.663 13.3139L171.803 14.0488L171.805 14.0554L173.663 13.3139ZM162.562 24.5852L164.534 24.9174L164.536 24.9084L164.537 24.8995L162.562 24.5852ZM162.647 18.2784L160.685 18.6675L160.686 18.6706L162.647 18.2784ZM160.495 14.4006L159.241 15.9583L159.247 15.9633L159.253 15.9682L160.495 14.4006ZM150.502 14.6136L149.434 12.9227L150.502 14.6136ZM144.238 25.9489L146.206 26.3027L146.21 26.2818L146.214 26.2608L144.238 25.9489ZM144.11 32.2557L142.157 32.686L142.159 32.6939L142.161 32.7018L144.11 32.2557ZM146.369 36.027L145.172 37.6294L145.182 37.6366L146.369 36.027ZM156.298 35.7926L155.244 34.0924L155.238 34.0966L156.298 35.7926ZM160.282 31.4673L158.54 30.4849L158.534 30.4949L160.282 31.4673ZM174.494 25.9489L172.521 25.6181C171.767 30.1171 170.29 33.7859 168.152 36.6967L169.764 37.8807L171.375 39.0646C173.953 35.555 175.63 31.2692 176.466 26.2796L174.494 25.9489ZM169.764 37.8807L168.152 36.6967C165.973 39.6622 163.359 41.8646 160.304 43.347L161.177 45.1463L162.05 46.9457C165.728 45.161 168.838 42.5196 171.375 39.0646L169.764 37.8807ZM161.177 45.1463L160.304 43.347C157.216 44.8451 153.915 45.5966 150.374 45.5966V47.5966V49.5966C154.504 49.5966 158.404 48.7146 162.05 46.9457L161.177 45.1463ZM150.374 47.5966V45.5966C146.579 45.5966 143.391 44.7757 140.737 43.2104L139.721 44.9332L138.705 46.6561C142.073 48.642 145.988 49.5966 150.374 49.5966V47.5966ZM139.721 44.9332L140.737 43.2104C138.127 41.6717 136.216 39.4268 134.992 36.3882L133.137 37.1349L131.282 37.8817C132.814 41.6897 135.292 44.6436 138.705 46.6561L139.721 44.9332ZM133.137 37.1349L134.992 36.3882C133.793 33.407 133.495 29.62 134.279 24.914L132.306 24.5852L130.333 24.2564C129.47 29.4368 129.726 34.0163 131.282 37.8817L133.137 37.1349ZM132.306 24.5852L134.281 24.9044C135.007 20.4089 136.471 16.7268 138.611 13.788L136.994 12.6108L135.377 11.4336C132.801 14.9721 131.139 19.2729 130.332 24.266L132.306 24.5852ZM136.994 12.6108L138.611 13.788C140.789 10.7965 143.418 8.56637 146.502 7.05625L145.623 5.25994L144.744 3.46364C141.039 5.27738 137.915 7.94785 135.377 11.4336L136.994 12.6108ZM145.623 5.25994L146.502 7.05625C149.617 5.53138 152.945 4.76704 156.511 4.76704V2.76704V0.767044C152.349 0.767044 148.418 1.66464 144.744 3.46364L145.623 5.25994ZM156.511 2.76704V4.76704C160.272 4.76704 163.435 5.59267 166.075 7.16884L167.1 5.4517L168.126 3.73457C164.771 1.73119 160.874 0.767044 156.511 0.767044V2.76704ZM167.1 5.4517L166.078 7.17097C168.686 8.72048 170.591 10.9828 171.803 14.0488L173.663 13.3139L175.523 12.5791C174.007 8.74167 171.538 5.76247 168.122 3.73244L167.1 5.4517ZM173.663 13.3139L171.805 14.0554C173.008 17.0681 173.305 20.8867 172.521 25.6219L174.494 25.9489L176.467 26.2758C177.33 21.0679 177.073 16.4632 175.52 12.5725L173.663 13.3139ZM162.562 24.5852L164.537 24.8995C164.957 22.2624 165.012 19.9038 164.608 17.8862L162.647 18.2784L160.686 18.6706C160.964 20.0621 160.963 21.908 160.587 24.271L162.562 24.5852ZM162.647 18.2784L164.609 17.8893C164.2 15.8274 163.291 14.0636 161.737 12.8329L160.495 14.4006L159.253 15.9682C159.887 16.4704 160.412 17.2919 160.685 18.6675L162.647 18.2784ZM160.495 14.4006L161.749 12.8428C160.202 11.5967 158.243 11.0795 156.085 11.0795V13.0795V15.0795C157.62 15.0795 158.601 15.443 159.241 15.9583L160.495 14.4006ZM156.085 13.0795V11.0795C153.643 11.0795 151.404 11.6786 149.434 12.9227L150.502 14.6136L151.57 16.3046C152.839 15.5033 154.322 15.0795 156.085 15.0795V13.0795ZM150.502 14.6136L149.434 12.9227C147.492 14.149 145.931 15.8852 144.727 18.0529L146.475 19.0241L148.224 19.9954C149.15 18.3279 150.273 17.1237 151.57 16.3046L150.502 14.6136ZM146.475 19.0241L144.727 18.0529C143.524 20.2186 142.717 22.7613 142.262 25.6369L144.238 25.9489L146.214 26.2608C146.612 23.7387 147.296 21.6649 148.224 19.9954L146.475 19.0241ZM144.238 25.9489L142.27 25.595C141.789 28.2663 141.71 30.657 142.157 32.686L144.11 32.2557L146.063 31.8253C145.772 30.5021 145.778 28.6883 146.206 26.3027L144.238 25.9489ZM144.11 32.2557L142.161 32.7018C142.625 34.7312 143.589 36.4469 145.172 37.6294L146.369 36.027L147.565 34.4246C146.905 33.931 146.362 33.1324 146.06 31.8096L144.11 32.2557ZM146.369 36.027L145.182 37.6366C146.749 38.7928 148.678 39.2841 150.8 39.2841V37.2841V35.2841C149.286 35.2841 148.261 34.9373 147.556 34.4174L146.369 36.027ZM150.8 37.2841V39.2841C153.208 39.2841 155.416 38.7022 157.358 37.4886L156.298 35.7926L155.238 34.0966C153.998 34.8717 152.54 35.2841 150.8 35.2841V37.2841ZM156.298 35.7926L157.351 37.4928C159.285 36.2944 160.837 34.583 162.03 32.4397L160.282 31.4673L158.534 30.4949C157.625 32.13 156.52 33.3022 155.244 34.0924L156.298 35.7926ZM160.282 31.4673L162.024 32.4497C163.229 30.3137 164.051 27.7875 164.534 24.9174L162.562 24.5852L160.59 24.2531C160.164 26.7807 159.466 28.8425 158.54 30.4849L160.282 31.4673ZM175.881 47L173.908 46.6725L173.521 49H175.881V47ZM183.125 3.36364V1.36364H181.43L181.152 3.03609L183.125 3.36364ZM210.738 6.0696L209.711 7.7853L210.738 6.0696ZM217.152 13.804L215.281 14.5097V14.5097L217.152 13.804ZM217.898 25.7784L215.924 25.4516L215.924 25.4516L217.898 25.7784ZM213.402 37.2202L211.773 36.0591L211.77 36.0639L213.402 37.2202ZM204.794 44.4858L203.929 42.6825L203.926 42.6839L204.794 44.4858ZM189.389 36.9432L187.416 36.6144L187.028 38.9432H189.389V36.9432ZM199.467 35.8139L200.281 37.6409L200.288 37.6378L199.467 35.8139ZM203.729 31.9787L202.042 30.9032L202.04 30.9067L203.729 31.9787ZM206.221 24.5852L208.195 24.9082L208.195 24.9079L206.221 24.5852ZM206.179 17.7457L204.272 18.348L204.273 18.3528L206.179 17.7457ZM203.26 14.3793L202.446 16.2061L202.453 16.2095L202.461 16.2128L203.26 14.3793ZM193.31 13.4205V11.4205H191.615L191.337 13.0917L193.31 13.4205ZM192.926 47V45H175.881V47V49H192.926V47ZM175.881 47L177.854 47.3275L185.098 3.69118L183.125 3.36364L181.152 3.03609L173.908 46.6725L175.881 47ZM183.125 3.36364V5.36364H199.488V3.36364V1.36364H183.125V3.36364ZM199.488 3.36364V5.36364C203.714 5.36364 207.085 6.2125 209.711 7.7853L210.738 6.0696L211.766 4.3539C208.369 2.31875 204.24 1.36364 199.488 1.36364V3.36364ZM210.738 6.0696L209.711 7.7853C212.326 9.35228 214.172 11.5702 215.281 14.5097L217.152 13.804L219.023 13.0983C217.603 9.33325 215.173 6.39488 211.766 4.3539L210.738 6.0696ZM217.152 13.804L215.281 14.5097C216.388 17.4459 216.651 21.0633 215.924 25.4516L217.898 25.7784L219.871 26.1052C220.678 21.2322 220.444 16.8666 219.023 13.0983L217.152 13.804ZM217.898 25.7784L215.924 25.4516C215.228 29.6598 213.828 33.1769 211.773 36.0591L213.402 37.2202L215.03 38.3813C217.492 34.9282 219.09 30.8175 219.871 26.1052L217.898 25.7784ZM213.402 37.2202L211.77 36.0639C209.722 38.9547 207.116 41.1537 203.929 42.6825L204.794 44.4858L205.659 46.2891C209.46 44.4657 212.593 41.8209 215.034 38.3764L213.402 37.2202ZM204.794 44.4858L203.926 42.6839C200.754 44.2117 197.102 45 192.926 45V47V49C197.614 49 201.874 48.1122 205.662 46.2877L204.794 44.4858ZM189.389 36.9432V38.9432H193.693V36.9432V34.9432H189.389V36.9432ZM193.693 36.9432V38.9432C196.086 38.9432 198.295 38.5253 200.281 37.6409L199.467 35.8139L198.653 33.9869C197.258 34.6082 195.618 34.9432 193.693 34.9432V36.9432ZM199.467 35.8139L200.288 37.6378C202.395 36.6894 204.1 35.1248 205.417 33.0507L203.729 31.9787L202.04 30.9067C201.084 32.4121 199.948 33.4043 198.646 33.9901L199.467 35.8139ZM203.729 31.9787L205.415 33.0542C206.764 30.939 207.659 28.1838 208.195 24.9082L206.221 24.5852L204.248 24.2622C203.761 27.2367 202.994 29.4104 202.042 30.9032L203.729 31.9787ZM206.221 24.5852L208.195 24.9079C208.695 21.8488 208.739 19.1944 208.084 17.1386L206.179 17.7457L204.273 18.3528C204.641 19.5073 204.714 21.4126 204.248 24.2626L206.221 24.5852ZM206.179 17.7457L208.086 17.1435C207.417 15.0258 206.072 13.4229 204.059 12.5457L203.26 14.3793L202.461 16.2128C203.317 16.5856 203.918 17.2271 204.272 18.348L206.179 17.7457ZM203.26 14.3793L204.074 12.5524C202.295 11.7599 200.136 11.4205 197.699 11.4205V13.4205V15.4205C199.807 15.4205 201.355 15.7202 202.446 16.2061L203.26 14.3793ZM197.699 13.4205V11.4205H193.31V13.4205V15.4205H197.699V13.4205ZM193.31 13.4205L191.337 13.0917L187.416 36.6144L189.389 36.9432L191.362 37.272L195.282 13.7493L193.31 13.4205ZM219.284 47L217.311 46.6725L216.925 49H219.284V47ZM226.529 3.36364V1.36364H224.833L224.556 3.03609L226.529 3.36364ZM257.978 3.36364L259.949 3.69814L260.345 1.36364H257.978V3.36364ZM256.358 12.9091V14.9091H258.048L258.33 13.2436L256.358 12.9091ZM236.756 12.9091V10.9091H235.049L234.781 12.5949L236.756 12.9091ZM235.563 20.4091L233.588 20.0949L233.22 22.4091H235.563V20.4091ZM253.546 20.4091L255.518 20.7436L255.914 18.4091H253.546V20.4091ZM251.926 29.9545V31.9545H253.616L253.898 30.2891L251.926 29.9545ZM233.944 29.9545V27.9545H232.237L231.968 29.6403L233.944 29.9545ZM232.75 37.4545L230.775 37.1403L230.407 39.4545H232.75V37.4545ZM252.267 37.4545L254.239 37.7891L254.635 35.4545H252.267V37.4545ZM250.648 47V49H252.337L252.62 47.3345L250.648 47ZM219.284 47L221.257 47.3275L228.502 3.69118L226.529 3.36364L224.556 3.03609L217.311 46.6725L219.284 47ZM226.529 3.36364V5.36364H257.978V3.36364V1.36364H226.529V3.36364ZM257.978 3.36364L256.006 3.02913L254.386 12.5746L256.358 12.9091L258.33 13.2436L259.949 3.69814L257.978 3.36364ZM256.358 12.9091V10.9091H236.756V12.9091V14.9091H256.358V12.9091ZM236.756 12.9091L234.781 12.5949L233.588 20.0949L235.563 20.4091L237.538 20.7233L238.731 13.2233L236.756 12.9091ZM235.563 20.4091V22.4091H253.546V20.4091V18.4091H235.563V20.4091ZM253.546 20.4091L251.574 20.0746L249.955 29.62L251.926 29.9545L253.898 30.2891L255.518 20.7436L253.546 20.4091ZM251.926 29.9545V27.9545H233.944V29.9545V31.9545H251.926V29.9545ZM233.944 29.9545L231.968 29.6403L230.775 37.1403L232.75 37.4545L234.726 37.7688L235.919 30.2688L233.944 29.9545ZM232.75 37.4545V39.4545H252.267V37.4545V35.4545H232.75V37.4545ZM252.267 37.4545L250.296 37.12L248.676 46.6655L250.648 47L252.62 47.3345L254.239 37.7891L252.267 37.4545ZM250.648 47V45H219.284V47V49H250.648V47ZM258.757 45.956L257.263 47.2858L257.272 47.2954L257.281 47.3049L258.757 45.956ZM257.458 41.7159L255.469 41.5065L255.468 41.5119L257.458 41.7159ZM259.652 37.5611L258.33 36.06L258.322 36.0672L259.652 37.5611ZM268.047 37.5611L266.57 38.9101L266.579 38.9199L268.047 37.5611ZM269.389 41.7159L267.4 41.5065L267.4 41.5119L269.389 41.7159ZM268.217 44.7415L266.605 43.5577L266.602 43.5621L268.217 44.7415ZM265.788 46.8935L266.755 48.6443L266.764 48.6394L265.788 46.8935ZM262.827 47.6818V45.6818C261.685 45.6818 260.879 45.3128 260.234 44.607L258.757 45.956L257.281 47.3049C258.738 48.9003 260.645 49.6818 262.827 49.6818V47.6818ZM258.757 45.956L260.251 44.6261C259.616 43.9129 259.329 43.0684 259.447 41.92L257.458 41.7159L255.468 41.5119C255.245 43.6873 255.825 45.6695 257.263 47.2858L258.757 45.956ZM257.458 41.7159L259.447 41.9253C259.561 40.8343 260.036 39.8971 260.982 39.055L259.652 37.5611L258.322 36.0672C256.683 37.5261 255.695 39.3589 255.469 41.5065L257.458 41.7159ZM259.652 37.5611L260.974 39.0622C261.934 38.2164 262.955 37.8352 264.105 37.8352V35.8352V33.8352C261.932 33.8352 259.983 34.6046 258.331 36.06L259.652 37.5611ZM264.105 35.8352V37.8352C265.128 37.8352 265.903 38.1798 266.57 38.91L268.047 37.5611L269.524 36.2121C268.089 34.6413 266.236 33.8352 264.105 33.8352V35.8352ZM268.047 37.5611L266.579 38.9199C267.236 39.6292 267.513 40.4356 267.4 41.5065L269.389 41.7159L271.378 41.9253C271.607 39.7576 270.988 37.7941 269.515 36.2023L268.047 37.5611ZM269.389 41.7159L267.4 41.5119C267.323 42.2607 267.065 42.9319 266.605 43.5577L268.217 44.7415L269.829 45.9253C270.705 44.7329 271.228 43.387 271.379 41.92L269.389 41.7159ZM268.217 44.7415L266.602 43.5621C266.118 44.2246 265.527 44.7486 264.813 45.1476L265.788 46.8935L266.764 48.6394C267.982 47.9588 269.01 47.0481 269.833 45.9209L268.217 44.7415ZM265.788 46.8935L264.822 45.1427C264.147 45.5154 263.49 45.6818 262.827 45.6818V47.6818V49.6818C264.209 49.6818 265.527 49.3226 266.755 48.6442L265.788 46.8935ZM274.159 47L272.186 46.6725L271.799 49H274.159V47ZM281.403 3.36364V1.36364H279.708L279.43 3.03609L281.403 3.36364ZM293.25 3.36364L295.223 3.68923L295.607 1.36364H293.25V3.36364ZM287.625 37.4545L285.651 37.1289L285.268 39.4545H287.625V37.4545ZM305.267 37.4545L307.238 37.7891L307.634 35.4545H305.267V37.4545ZM303.647 47V49H305.337L305.619 47.3345L303.647 47ZM274.159 47L276.132 47.3275L283.376 3.69118L281.403 3.36364L279.43 3.03609L272.186 46.6725L274.159 47ZM281.403 3.36364V5.36364H293.25V3.36364V1.36364H281.403V3.36364ZM293.25 3.36364L291.276 3.03804L285.651 37.1289L287.625 37.4545L289.598 37.7801L295.223 3.68923L293.25 3.36364ZM287.625 37.4545V39.4545H305.267V37.4545V35.4545H287.625V37.4545ZM305.267 37.4545L303.295 37.12L301.675 46.6655L303.647 47L305.619 47.3345L307.238 37.7891L305.267 37.4545ZM303.647 47V45H274.159V47V49H303.647V47ZM311.693 46.4886L310.84 48.2979L310.851 48.3028L310.861 48.3076L311.693 46.4886ZM308.454 43.3352L306.644 44.186L306.649 44.1969L306.654 44.2078L308.454 43.3352ZM308.006 37.9659L309.978 38.3031L309.979 38.2947L308.006 37.9659ZM309.69 33.3849L311.365 34.4769L309.69 33.3849ZM312.758 30.2741L313.863 31.9412L312.758 30.2741ZM316.87 28.4205L317.41 30.3462L317.422 30.3428L316.87 28.4205ZM321.728 27.5682L321.878 29.5626L321.881 29.5623L321.728 27.5682ZM326.224 27.0355L325.86 25.0689L326.224 27.0355ZM328.802 26.1619L327.712 24.485V24.485L328.802 26.1619ZM329.825 24.6705L331.792 25.0282L331.825 24.8508V24.6705H329.825ZM329.825 24.5852L327.847 24.2885L327.825 24.4361V24.5852H329.825ZM329.143 22.625L327.893 24.1867L327.903 24.1942L327.912 24.2016L329.143 22.625ZM323.88 22.6676L322.855 20.95L322.849 20.954L322.842 20.958L323.88 22.6676ZM322.239 24.9261V26.9261H323.739L324.159 25.4861L322.239 24.9261ZM311.416 24.9261L309.466 24.4805L308.907 26.9261H311.416V24.9261ZM314.207 19.429L312.676 18.1423L312.675 18.1435L314.207 19.429ZM319.853 15.3807L320.644 17.2178L320.649 17.2155L319.853 15.3807ZM334.427 14.6776L333.827 16.5854L333.834 16.5876L333.841 16.5898L334.427 14.6776ZM338.795 16.9574L337.498 18.4799L337.508 18.4885L337.518 18.4969L338.795 16.9574ZM341.245 20.3665L339.363 21.0417L339.367 21.0541L339.372 21.0665L341.245 20.3665ZM341.586 24.5852L339.614 24.2534L339.613 24.2552L341.586 24.5852ZM337.836 47V49H339.529L339.809 47.33L337.836 47ZM326.842 47L324.869 46.6712L324.481 49H326.842V47ZM327.609 42.3977L329.582 42.7265L329.97 40.3977H327.609V42.3977ZM327.353 42.3977V40.3977H326.31L325.713 41.2534L327.353 42.3977ZM324.477 45.3594L323.322 43.726L323.312 43.7334L324.477 45.3594ZM321.025 47L320.499 45.0705L320.493 45.072L321.025 47ZM324.754 39.5426L325.549 41.3777L324.754 39.5426ZM326.948 37.9446L328.451 39.2638L326.948 37.9446ZM328.12 35.4091L330.091 35.747L330.094 35.7324L330.096 35.7178L328.12 35.4091ZM328.546 32.6818L330.522 32.9906L331.069 29.4887L327.789 30.8307L328.546 32.6818ZM327.502 33.044L328.022 34.9753L328.046 34.9688L328.07 34.9616L327.502 33.044ZM326.33 33.3423L325.861 31.3982L325.853 31.4001L325.845 31.402L326.33 33.3423ZM325.052 33.6193L324.683 31.6535L324.672 31.6558L325.052 33.6193ZM323.688 33.875L323.988 35.8524L324.017 35.848L324.046 35.8427L323.688 33.875ZM321.323 34.5781L322.202 36.3749L322.218 36.3671L322.233 36.359L321.323 34.5781ZM319.832 35.75L321.408 36.9813L321.417 36.9696L321.426 36.9577L319.832 35.75ZM319.171 37.2841L317.193 36.9874L317.191 37.0012L319.171 37.2841ZM319.789 39.3722L318.434 40.8433L318.454 40.8618L318.475 40.8797L319.789 39.3722ZM317.041 47.5114V45.5114C315.18 45.5114 313.695 45.205 312.524 44.6697L311.693 46.4886L310.861 48.3076C312.673 49.1359 314.753 49.5114 317.041 49.5114V47.5114ZM311.693 46.4886L312.545 44.6794C311.461 44.1687 310.726 43.4381 310.254 42.4627L308.454 43.3352L306.654 44.2078C307.545 46.0448 308.969 47.4165 310.84 48.2979L311.693 46.4886ZM308.454 43.3352L310.264 42.4845C309.827 41.5545 309.651 40.2136 309.978 38.3031L308.006 37.9659L306.035 37.6287C305.623 40.0364 305.746 42.2751 306.644 44.186L308.454 43.3352ZM308.006 37.9659L309.979 38.2947C310.241 36.7231 310.719 35.4681 311.365 34.4769L309.69 33.3849L308.014 32.293C307.012 33.8302 306.368 35.6292 306.034 37.6371L308.006 37.9659ZM309.69 33.3849L311.365 34.4769C312.045 33.4344 312.875 32.5956 313.863 31.9412L312.758 30.2741L311.653 28.6071C310.197 29.572 308.982 30.8071 308.014 32.293L309.69 33.3849ZM312.758 30.2741L313.863 31.9412C314.898 31.2552 316.075 30.7204 317.41 30.3462L316.87 28.4205L316.33 26.4947C314.625 26.9728 313.061 27.6737 311.653 28.6071L312.758 30.2741ZM316.87 28.4205L317.422 30.3428C318.816 29.9427 320.3 29.6809 321.878 29.5626L321.728 27.5682L321.578 25.5738C319.747 25.7111 317.993 26.0175 316.318 26.4981L316.87 28.4205ZM321.728 27.5682L321.881 29.5623C323.763 29.4175 325.34 29.2332 326.588 29.0021L326.224 27.0355L325.86 25.0689C324.807 25.2639 323.386 25.4347 321.575 25.5741L321.728 27.5682ZM326.224 27.0355L326.588 29.0021C327.837 28.7709 328.998 28.4196 329.892 27.8388L328.802 26.1619L327.712 24.485C327.469 24.6429 326.912 24.874 325.86 25.0689L326.224 27.0355ZM328.802 26.1619L329.892 27.8388C330.887 27.1918 331.573 26.2342 331.792 25.0282L329.825 24.6705L327.857 24.3127C327.848 24.3631 327.837 24.3773 327.834 24.381C327.83 24.3873 327.803 24.426 327.712 24.485L328.802 26.1619ZM329.825 24.6705H331.825V24.5852H329.825H327.825V24.6705H329.825ZM329.825 24.5852L331.803 24.8819C332.016 23.4583 331.629 22.0287 330.373 21.0484L329.143 22.625L327.912 24.2016C327.923 24.2102 327.914 24.2051 327.898 24.1832C327.882 24.1606 327.869 24.135 327.861 24.113C327.845 24.0675 327.874 24.1055 327.847 24.2885L329.825 24.5852ZM329.143 22.625L330.392 21.0633C329.35 20.2296 328.052 19.9432 326.756 19.9432V21.9432V23.9432C327.506 23.9432 327.799 24.1113 327.893 24.1867L329.143 22.625ZM326.756 21.9432V19.9432C325.352 19.9432 324.026 20.252 322.855 20.95L323.88 22.6676L324.905 24.3853C325.354 24.1173 325.945 23.9432 326.756 23.9432V21.9432ZM323.88 22.6676L322.842 20.958C321.557 21.7381 320.736 22.9379 320.319 24.3661L322.239 24.9261L324.159 25.4861C324.339 24.8689 324.612 24.563 324.918 24.3772L323.88 22.6676ZM322.239 24.9261V22.9261H311.416V24.9261V26.9261H322.239V24.9261ZM311.416 24.9261L313.365 25.3718C313.744 23.7144 314.521 22.1657 315.739 20.7144L314.207 19.429L312.675 18.1435C311.08 20.0445 309.996 22.1606 309.466 24.4805L311.416 24.9261ZM314.207 19.429L315.738 20.7157C316.929 19.2986 318.542 18.1223 320.644 17.2178L319.853 15.3807L319.063 13.5435C316.477 14.6561 314.326 16.1786 312.676 18.1423L314.207 19.429ZM319.853 15.3807L320.649 17.2155C322.697 16.327 325.226 15.8466 328.291 15.8466V13.8466V11.8466C324.821 11.8466 321.725 12.3889 319.057 13.5458L319.853 15.3807ZM328.291 13.8466V15.8466C330.467 15.8466 332.303 16.1061 333.827 16.5854L334.427 14.6776L335.027 12.7697C333.028 12.1411 330.773 11.8466 328.291 11.8466V13.8466ZM334.427 14.6776L333.841 16.5898C335.397 17.0666 336.595 17.7111 337.498 18.4799L338.795 16.9574L340.092 15.4349C338.693 14.2434 336.98 13.368 335.013 12.7653L334.427 14.6776ZM338.795 16.9574L337.518 18.4969C338.433 19.2554 339.025 20.102 339.363 21.0417L341.245 20.3665L343.128 19.6912C342.527 18.0173 341.486 16.5912 340.072 15.4179L338.795 16.9574ZM341.245 20.3665L339.372 21.0665C339.718 21.9925 339.818 23.0387 339.614 24.2534L341.586 24.5852L343.558 24.917C343.865 23.092 343.739 21.3256 343.119 19.6665L341.245 20.3665ZM341.586 24.5852L339.613 24.2552L335.863 46.67L337.836 47L339.809 47.33L343.559 24.9152L341.586 24.5852ZM337.836 47V45H326.842V47V49H337.836V47ZM326.842 47L328.814 47.3288L329.582 42.7265L327.609 42.3977L325.636 42.0689L324.869 46.6712L326.842 47ZM327.609 42.3977V40.3977H327.353V42.3977V44.3977H327.609V42.3977ZM327.353 42.3977L325.713 41.2534C324.974 42.3116 324.174 43.1243 323.322 43.726L324.477 45.3594L325.631 46.9927C326.91 46.0887 328.027 44.927 328.993 43.5421L327.353 42.3977ZM324.477 45.3594L323.312 43.7334C322.454 44.3477 321.52 44.7919 320.499 45.0705L321.025 47L321.551 48.9295C323.03 48.5263 324.397 47.8768 325.641 46.9854L324.477 45.3594ZM321.025 47L320.493 45.072C319.448 45.3603 318.3 45.5114 317.041 45.5114V47.5114V49.5114C318.622 49.5114 320.13 49.3215 321.557 48.928L321.025 47ZM322.154 40.0966V42.0966C323.323 42.0966 324.46 41.8498 325.549 41.3777L324.754 39.5426L323.958 37.7075C323.343 37.9741 322.746 38.0966 322.154 38.0966V40.0966ZM324.754 39.5426L325.549 41.3777C326.672 40.8912 327.645 40.1827 328.451 39.2638L326.948 37.9446L325.445 36.6254C325.03 37.0986 324.54 37.4553 323.958 37.7075L324.754 39.5426ZM326.948 37.9446L328.451 39.2638C329.328 38.2655 329.864 37.0716 330.091 35.747L328.12 35.4091L326.149 35.0712C326.035 35.7352 325.791 36.2316 325.445 36.6254L326.948 37.9446ZM328.12 35.4091L330.096 35.7178L330.522 32.9906L328.546 32.6818L326.57 32.3731L326.144 35.1003L328.12 35.4091ZM328.546 32.6818L327.789 30.8307C327.548 30.9291 327.265 31.0284 326.934 31.1264L327.502 33.044L328.07 34.9616C328.507 34.8324 328.919 34.6902 329.304 34.5329L328.546 32.6818ZM327.502 33.044L326.982 31.1128C326.631 31.2072 326.258 31.3024 325.861 31.3982L326.33 33.3423L326.8 35.2865C327.227 35.1834 327.634 35.0797 328.022 34.9753L327.502 33.044ZM326.33 33.3423L325.845 31.402C325.491 31.4907 325.104 31.5748 324.683 31.6536L325.052 33.6193L325.421 35.5851C325.909 35.4934 326.375 35.3928 326.815 35.2826L326.33 33.3423ZM325.052 33.6193L324.672 31.6558C324.239 31.7395 323.792 31.8233 323.331 31.9073L323.688 33.875L324.046 35.8427C324.522 35.7562 324.984 35.6696 325.432 35.5829L325.052 33.6193ZM323.688 33.875L323.389 31.8976C322.303 32.0621 321.294 32.3469 320.413 32.7973L321.323 34.5781L322.233 36.359C322.631 36.1559 323.199 35.972 323.988 35.8524L323.688 33.875ZM321.323 34.5781L320.445 32.7814C319.583 33.2029 318.818 33.7768 318.238 34.5423L319.832 35.75L321.426 36.9577C321.556 36.7857 321.786 36.5783 322.202 36.3749L321.323 34.5781ZM319.832 35.75L318.256 34.5187C317.689 35.2438 317.33 36.0768 317.193 36.9874L319.171 37.2841L321.149 37.5808C321.183 37.355 321.264 37.1653 321.408 36.9813L319.832 35.75ZM319.171 37.2841L317.191 37.0012C316.995 38.3769 317.295 39.7944 318.434 40.8433L319.789 39.3722L321.144 37.9011C321.135 37.8927 321.137 37.8931 321.143 37.902C321.149 37.9111 321.149 37.9159 321.148 37.9098C321.144 37.8964 321.118 37.7977 321.151 37.5669L319.171 37.2841ZM319.789 39.3722L318.475 40.8797C319.514 41.7854 320.837 42.0966 322.154 42.0966V40.0966V38.0966C321.426 38.0966 321.172 37.9248 321.103 37.8646L319.789 39.3722ZM342.685 47L340.712 46.6725L340.326 49H342.685V47ZM349.93 3.36364V1.36364H348.234L347.957 3.03609L349.93 3.36364ZM361.691 3.36364L363.665 3.68751L364.046 1.36364H361.691V3.36364ZM358.964 19.983L356.99 19.6591L356.609 21.983H358.964V19.983ZM359.134 19.983V21.983H360.329L360.895 20.9312L359.134 19.983ZM361.499 16.9361L362.871 18.3919L362.876 18.3866L362.882 18.3814L361.499 16.9361ZM364.951 14.6989L365.724 16.5432L365.733 16.5397L365.741 16.5361L364.951 14.6989ZM375.221 15.5724L374.121 17.2428L374.127 17.2469L375.221 15.5724ZM379.077 21.0057L377.177 21.6283L377.18 21.6381L379.077 21.0057ZM379.333 30.6364L377.36 30.3099L377.36 30.31L379.333 30.6364ZM376.009 40.0327L374.325 38.9546L376.009 40.0327ZM370.384 45.5938L369.399 43.8531L370.384 45.5938ZM359.667 46.6804L358.829 48.4963L358.843 48.5028L358.857 48.509L359.667 46.6804ZM356.961 44.6136L355.379 45.838L355.39 45.8522L355.402 45.8661L356.961 44.6136ZM355.555 41.6307L357.503 41.181L357.146 39.6307H355.555V41.6307ZM355.214 41.6307V39.6307H353.506L353.238 41.3171L355.214 41.6307ZM354.361 47V49H356.069L356.337 47.3135L354.361 47ZM356.918 30.6364L358.893 30.9537L358.894 30.9483L356.918 30.6364ZM356.876 34.7699L354.913 35.1529L354.913 35.1575L356.876 34.7699ZM358.218 37.4545L356.835 38.8992L356.843 38.9069L356.851 38.9146L358.218 37.4545ZM363.758 37.4759L364.91 39.1105L364.919 39.1043L364.928 39.0979L363.758 37.4759ZM365.952 34.8125L367.728 35.7331L367.732 35.7243L365.952 34.8125ZM367.231 30.6364L365.255 30.3244V30.3244L367.231 30.6364ZM367.295 26.4815L365.327 26.8414L365.328 26.8457L367.295 26.4815ZM365.995 23.8182L364.612 25.2635L364.621 25.2714L364.629 25.2792L365.995 23.8182ZM360.455 23.8182L361.595 25.4616L361.604 25.4555L361.613 25.4492L360.455 23.8182ZM358.218 26.4815L359.984 27.4193L359.989 27.4104L358.218 26.4815ZM342.685 47L344.658 47.3275L351.903 3.69118L349.93 3.36364L347.957 3.03609L340.712 46.6725L342.685 47ZM349.93 3.36364V5.36364H361.691V3.36364V1.36364H349.93V3.36364ZM361.691 3.36364L359.717 3.03976L356.99 19.6591L358.964 19.983L360.937 20.3068L363.665 3.68751L361.691 3.36364ZM358.964 19.983V21.983H359.134V19.983V17.983H358.964V19.983ZM359.134 19.983L360.895 20.9312C361.383 20.025 362.036 19.1783 362.871 18.3919L361.499 16.9361L360.128 15.4803C359.002 16.5405 358.078 17.725 357.373 19.0348L359.134 19.983ZM361.499 16.9361L362.882 18.3814C363.675 17.6224 364.616 17.008 365.724 16.5432L364.951 14.6989L364.177 12.8545C362.643 13.4977 361.283 14.3748 360.117 15.4908L361.499 16.9361ZM364.951 14.6989L365.741 16.5361C366.783 16.0881 367.98 15.8466 369.361 15.8466V13.8466V11.8466C367.505 11.8466 365.761 12.1733 364.161 12.8616L364.951 14.6989ZM369.361 13.8466V15.8466C371.143 15.8466 372.711 16.3145 374.121 17.2428L375.221 15.5724L376.321 13.9021C374.236 12.5293 371.898 11.8466 369.361 11.8466V13.8466ZM375.221 15.5724L374.127 17.2469C375.425 18.0945 376.474 19.484 377.177 21.6283L379.077 21.0057L380.978 20.3831C380.061 17.5842 378.54 15.3516 376.315 13.898L375.221 15.5724ZM379.077 21.0057L377.18 21.6381C377.86 23.6791 377.986 26.5253 377.36 30.3099L379.333 30.6364L381.306 30.9629C381.987 26.8497 381.942 23.2755 380.975 20.3732L379.077 21.0057ZM379.333 30.6364L377.36 30.31C376.766 33.8969 375.733 36.7543 374.325 38.9546L376.009 40.0327L377.694 41.1108C379.467 38.3395 380.649 34.9326 381.306 30.9628L379.333 30.6364ZM376.009 40.0327L374.325 38.9546C372.876 41.2177 371.225 42.8198 369.399 43.8531L370.384 45.5938L371.369 47.3344C373.861 45.9245 375.96 43.8193 377.694 41.1108L376.009 40.0327ZM370.384 45.5938L369.399 43.8531C367.52 44.9161 365.613 45.4261 363.651 45.4261V47.4261V49.4261C366.348 49.4261 368.93 48.7146 371.369 47.3344L370.384 45.5938ZM363.651 47.4261V45.4261C362.328 45.4261 361.289 45.2114 360.477 44.8518L359.667 46.6804L358.857 48.509C360.289 49.1437 361.906 49.4261 363.651 49.4261V47.4261ZM359.667 46.6804L360.505 44.8645C359.65 44.4698 359.004 43.9637 358.52 43.3611L356.961 44.6136L355.402 45.8661C356.31 46.9965 357.468 47.8683 358.829 48.4963L359.667 46.6804ZM356.961 44.6136L358.542 43.3893C358.041 42.7421 357.695 42.0133 357.503 41.181L355.555 41.6307L353.606 42.0804C353.925 43.464 354.517 44.7238 355.379 45.838L356.961 44.6136ZM355.555 41.6307V39.6307H355.214V41.6307V43.6307H355.555V41.6307ZM355.214 41.6307L353.238 41.3171L352.386 46.6865L354.361 47L356.337 47.3135L357.189 41.9442L355.214 41.6307ZM354.361 47V45H342.685V47V49H354.361V47ZM356.918 30.6364L354.944 30.319C354.663 32.0646 354.627 33.6909 354.913 35.1529L356.876 34.7699L358.839 34.3869C358.669 33.5193 358.662 32.3899 358.893 30.9537L356.918 30.6364ZM356.876 34.7699L354.913 35.1575C355.199 36.6028 355.799 37.9074 356.835 38.8992L358.218 37.4545L359.601 36.0099C359.302 35.7232 359.007 35.2381 358.838 34.3823L356.876 34.7699ZM358.218 37.4545L356.851 38.9146C357.955 39.9479 359.349 40.392 360.839 40.392V38.392V36.392C360.169 36.392 359.816 36.2112 359.585 35.9945L358.218 37.4545ZM360.839 38.392V40.392C362.323 40.392 363.7 39.9637 364.91 39.1105L363.758 37.4759L362.605 35.8412C362.083 36.2096 361.514 36.392 360.839 36.392V38.392ZM363.758 37.4759L364.928 39.0979C366.097 38.2547 367.017 37.1032 367.728 35.7331L365.952 34.8125L364.177 33.8919C363.694 34.8229 363.152 35.447 362.588 35.8538L363.758 37.4759ZM365.952 34.8125L367.732 35.7243C368.446 34.3305 368.926 32.7262 369.206 30.9483L367.231 30.6364L365.255 30.3244C365.025 31.7852 364.651 32.965 364.172 33.9007L365.952 34.8125ZM367.231 30.6364L369.206 30.9483C369.484 29.1876 369.529 27.561 369.261 26.1174L367.295 26.4815L365.328 26.8457C365.487 27.7032 365.489 28.8464 365.255 30.3244L367.231 30.6364ZM367.295 26.4815L369.262 26.1217C368.997 24.6707 368.415 23.343 367.361 22.3571L365.995 23.8182L364.629 25.2792C364.881 25.5149 365.167 25.9628 365.327 26.8414L367.295 26.4815ZM365.995 23.8182L367.377 22.3729C366.281 21.3246 364.884 20.8807 363.395 20.8807V22.8807V24.8807C364.066 24.8807 364.402 25.0618 364.612 25.2635L365.995 23.8182ZM363.395 22.8807V20.8807C361.901 20.8807 360.516 21.3222 359.298 22.1872L360.455 23.8182L361.613 25.4492C362.155 25.0641 362.731 24.8807 363.395 24.8807V22.8807ZM360.455 23.8182L359.315 22.1748C358.116 23.0065 357.174 24.1663 356.447 25.5527L358.218 26.4815L359.989 27.4104C360.484 26.4672 361.033 25.8514 361.595 25.4616L360.455 23.8182ZM358.218 26.4815L356.451 25.5438C355.714 26.933 355.224 28.5404 354.943 30.3244L356.918 30.6364L358.894 30.9483C359.123 29.4937 359.5 28.3312 359.984 27.4193L358.218 26.4815Z" fill="#7C7C7C" mask="url(#path-1-outside-1_9_348)"/>
</svg>
