<svg width="382" height="73" viewBox="0 0 382 73" fill="none" xmlns="http://www.w3.org/2000/svg">
<mask id="path-1-outside-1_9_347" maskUnits="userSpaceOnUse" x="0" y="11" width="382" height="50" fill="black">
<rect fill="white" y="11" width="382" height="50"/>
<path d="M20.1307 58H3.08523L10.3295 14.3636H26.6932C31.1818 14.3636 34.9318 15.2656 37.9432 17.0696C40.9545 18.8736 43.0923 21.4517 44.3565 24.804C45.6207 28.1562 45.8693 32.1477 45.1023 36.7784C44.3636 41.2386 42.8651 45.0526 40.6065 48.2202C38.3622 51.3878 35.4929 53.8097 31.9986 55.4858C28.5185 57.1619 24.5625 58 20.1307 58ZM16.5938 47.9432H20.8977C23.0568 47.9432 24.9815 47.5668 26.6719 46.8139C28.3764 46.0469 29.7969 44.7685 30.9332 42.9787C32.0838 41.1747 32.9148 38.7102 33.4261 35.5852C33.9091 32.6307 33.8949 30.3509 33.3835 28.7457C32.8722 27.1264 31.8991 26.0043 30.4645 25.3793C29.0298 24.7401 27.1761 24.4205 24.9034 24.4205H20.5142L16.5938 47.9432ZM46.4891 58L53.7335 14.3636H85.1823L83.563 23.9091H63.9607L62.7675 31.4091H80.7505L79.1312 40.9545H61.1482L59.955 48.4545H79.4721L77.8528 58H46.4891ZM128.426 30.7273H116.58C116.665 29.7187 116.608 28.8097 116.409 28C116.211 27.1903 115.87 26.4943 115.387 25.9119C114.904 25.3153 114.272 24.8608 113.49 24.5483C112.709 24.2358 111.779 24.0795 110.699 24.0795C108.625 24.0795 106.772 24.598 105.138 25.6349C103.505 26.6577 102.148 28.1278 101.068 30.0455C99.9889 31.9489 99.2219 34.2216 98.7673 36.8636C98.3696 39.4205 98.3554 41.544 98.7247 43.2344C99.1082 44.9247 99.854 46.1889 100.962 47.027C102.084 47.8651 103.54 48.2841 105.33 48.2841C106.523 48.2841 107.617 48.142 108.611 47.858C109.62 47.5739 110.514 47.169 111.296 46.6435C112.091 46.1037 112.766 45.4645 113.32 44.7259C113.888 43.973 114.321 43.142 114.62 42.233H126.551C126.097 44.0795 125.287 45.9687 124.122 47.9006C122.958 49.8182 121.452 51.5866 119.605 53.206C117.759 54.8111 115.586 56.1108 113.086 57.1051C110.586 58.0994 107.773 58.5966 104.648 58.5966C100.557 58.5966 97.0273 57.7017 94.0585 55.9119C91.104 54.1222 88.9591 51.5085 87.6239 48.071C86.3028 44.6335 86.0401 40.4432 86.8355 35.5C87.631 30.7273 89.2006 26.7287 91.5443 23.5043C93.8881 20.2798 96.7361 17.8509 100.088 16.2173C103.441 14.5838 107.006 13.767 110.784 13.767C113.639 13.767 116.196 14.1435 118.455 14.8963C120.728 15.6491 122.638 16.75 124.186 18.1989C125.749 19.6335 126.899 21.402 127.638 23.5043C128.377 25.6065 128.639 28.0142 128.426 30.7273ZM174.494 36.9489C173.698 41.6932 172.122 45.6705 169.764 48.8807C167.406 52.0909 164.543 54.5128 161.177 56.1463C157.81 57.7798 154.21 58.5966 150.374 58.5966C146.283 58.5966 142.732 57.7088 139.721 55.9332C136.71 54.1577 134.515 51.5582 133.137 48.1349C131.759 44.7116 131.482 40.5284 132.306 35.5852C133.073 30.8409 134.636 26.8494 136.994 23.6108C139.352 20.3722 142.228 17.9219 145.623 16.2599C149.018 14.598 152.647 13.767 156.511 13.767C160.573 13.767 164.103 14.6619 167.1 16.4517C170.112 18.2415 172.299 20.8622 173.663 24.3139C175.041 27.7656 175.318 31.9773 174.494 36.9489ZM162.562 35.5852C162.96 33.0852 162.988 30.983 162.647 29.2784C162.306 27.5597 161.589 26.267 160.495 25.4006C159.401 24.5199 157.931 24.0795 156.085 24.0795C153.982 24.0795 152.122 24.5909 150.502 25.6136C148.883 26.6364 147.541 28.1065 146.475 30.0241C145.41 31.9418 144.664 34.25 144.238 36.9489C143.783 39.4773 143.741 41.5795 144.11 43.2557C144.494 44.9318 145.247 46.1889 146.369 47.027C147.505 47.8651 148.982 48.2841 150.8 48.2841C152.874 48.2841 154.707 47.7869 156.298 46.7926C157.903 45.7983 159.231 44.3565 160.282 42.4673C161.347 40.5781 162.107 38.2841 162.562 35.5852ZM192.926 58H175.881L183.125 14.3636H199.489C203.977 14.3636 207.727 15.2656 210.739 17.0696C213.75 18.8736 215.888 21.4517 217.152 24.804C218.416 28.1562 218.665 32.1477 217.898 36.7784C217.159 41.2386 215.66 45.0526 213.402 48.2202C211.158 51.3878 208.288 53.8097 204.794 55.4858C201.314 57.1619 197.358 58 192.926 58ZM189.389 47.9432H193.693C195.852 47.9432 197.777 47.5668 199.467 46.8139C201.172 46.0469 202.592 44.7685 203.729 42.9787C204.879 41.1747 205.71 38.7102 206.221 35.5852C206.704 32.6307 206.69 30.3509 206.179 28.7457C205.667 27.1264 204.694 26.0043 203.26 25.3793C201.825 24.7401 199.971 24.4205 197.699 24.4205H193.31L189.389 47.9432ZM219.284 58L226.529 14.3636H257.978L256.358 23.9091H236.756L235.563 31.4091H253.546L251.926 40.9545H233.944L232.75 48.4545H252.267L250.648 58H219.284ZM262.827 58.6818C261.165 58.6818 259.808 58.1065 258.757 56.956C257.72 55.7912 257.287 54.3778 257.458 52.7159C257.628 51.0966 258.36 49.7116 259.652 48.5611C260.959 47.4105 262.443 46.8352 264.105 46.8352C265.682 46.8352 266.996 47.4105 268.047 48.5611C269.112 49.7116 269.56 51.0966 269.389 52.7159C269.276 53.8239 268.885 54.8324 268.217 55.7415C267.564 56.6364 266.754 57.3537 265.788 57.8935C264.837 58.419 263.85 58.6818 262.827 58.6818ZM274.159 58L281.403 14.3636H293.25L287.625 48.4545H305.267L303.647 58H274.159ZM317.041 58.5114C314.967 58.5114 313.184 58.1705 311.693 57.4886C310.215 56.7926 309.136 55.7415 308.454 54.3352C307.786 52.9148 307.637 51.125 308.006 48.9659C308.305 47.1761 308.866 45.6491 309.69 44.3849C310.514 43.1207 311.536 42.0838 312.758 41.2741C313.979 40.4645 315.35 39.8466 316.87 39.4205C318.404 38.9801 320.024 38.696 321.728 38.5682C323.575 38.4261 325.073 38.2486 326.224 38.0355C327.374 37.8224 328.234 37.5312 328.802 37.1619C329.37 36.7926 329.711 36.2955 329.825 35.6705V35.5852C329.952 34.733 329.725 34.0795 329.143 33.625C328.575 33.1705 327.779 32.9432 326.756 32.9432C325.649 32.9432 324.69 33.1847 323.88 33.6676C323.085 34.1506 322.538 34.9034 322.239 35.9261H311.416C311.87 33.9375 312.801 32.1051 314.207 30.429C315.627 28.7386 317.509 27.3892 319.853 26.3807C322.211 25.358 325.024 24.8466 328.291 24.8466C330.62 24.8466 332.666 25.1236 334.427 25.6776C336.188 26.2173 337.644 26.9773 338.795 27.9574C339.96 28.9233 340.776 30.0597 341.245 31.3665C341.728 32.6591 341.842 34.0653 341.586 35.5852L337.836 58H326.842L327.609 53.3977H327.353C326.501 54.6193 325.542 55.6065 324.477 56.3594C323.426 57.1122 322.275 57.6591 321.025 58C319.789 58.3409 318.461 58.5114 317.041 58.5114ZM322.154 51.0966C323.035 51.0966 323.901 50.9119 324.754 50.5426C325.606 50.1733 326.337 49.6406 326.948 48.9446C327.559 48.2486 327.95 47.4034 328.12 46.4091L328.546 43.6818C328.234 43.8097 327.886 43.9304 327.502 44.044C327.133 44.1435 326.742 44.2429 326.33 44.3423C325.933 44.4418 325.506 44.5341 325.052 44.6193C324.612 44.7045 324.157 44.7898 323.688 44.875C322.751 45.017 321.962 45.2514 321.323 45.5781C320.684 45.8906 320.187 46.2812 319.832 46.75C319.477 47.2045 319.256 47.7159 319.171 48.2841C319.043 49.179 319.249 49.875 319.789 50.3722C320.343 50.8551 321.131 51.0966 322.154 51.0966ZM342.685 58L349.93 14.3636H361.691L358.964 30.983H359.134C359.731 29.875 360.519 28.8594 361.499 27.9361C362.479 26.9986 363.63 26.2528 364.951 25.6989C366.272 25.1307 367.742 24.8466 369.361 24.8466C371.52 24.8466 373.474 25.4219 375.221 26.5724C376.982 27.723 378.268 29.5341 379.077 32.0057C379.901 34.4773 379.986 37.6875 379.333 41.6364C378.708 45.4148 377.6 48.5469 376.009 51.0327C374.418 53.5185 372.543 55.3722 370.384 56.5938C368.225 57.8153 365.981 58.4261 363.651 58.4261C362.117 58.4261 360.789 58.1776 359.667 57.6804C358.559 57.169 357.657 56.4801 356.961 55.6136C356.279 54.733 355.81 53.7386 355.555 52.6307H355.214L354.361 58H342.685ZM356.918 41.6364C356.663 43.2273 356.648 44.6051 356.876 45.7699C357.103 46.9205 357.55 47.8153 358.218 48.4545C358.886 49.0795 359.759 49.392 360.839 49.392C361.918 49.392 362.891 49.0866 363.758 48.4759C364.624 47.8509 365.356 46.9631 365.952 45.8125C366.549 44.6477 366.975 43.2557 367.231 41.6364C367.486 40.017 367.508 38.6321 367.295 37.4815C367.082 36.3168 366.648 35.429 365.995 34.8182C365.341 34.1932 364.475 33.8807 363.395 33.8807C362.316 33.8807 361.336 34.1932 360.455 34.8182C359.574 35.429 358.829 36.3168 358.218 37.4815C357.607 38.6321 357.174 40.017 356.918 41.6364Z"/>
</mask>
<path d="M3.08523 58L1.11223 57.6725L0.725822 60H3.08523V58ZM10.3295 14.3636V12.3636H8.6342L8.35655 14.0361L10.3295 14.3636ZM37.9432 17.0696L36.9154 18.7853L37.9432 17.0696ZM44.3565 24.804L42.4852 25.5097L42.4852 25.5097L44.3565 24.804ZM45.1023 36.7784L43.1292 36.4516L43.1291 36.4516L45.1023 36.7784ZM40.6065 48.2202L38.9781 47.0591L38.9746 47.0639L40.6065 48.2202ZM31.9986 55.4858L31.1336 53.6825L31.1307 53.6839L31.9986 55.4858ZM16.5938 47.9432L14.621 47.6144L14.2328 49.9432H16.5938V47.9432ZM26.6719 46.8139L27.4856 48.6409L27.4926 48.6378L26.6719 46.8139ZM30.9332 42.9787L29.247 41.9032L29.2448 41.9067L30.9332 42.9787ZM33.4261 35.5852L35.3999 35.9082L35.3999 35.9079L33.4261 35.5852ZM33.3835 28.7457L31.4764 29.348L31.4779 29.3528L33.3835 28.7457ZM30.4645 25.3793L29.6505 27.2061L29.6581 27.2095L29.6657 27.2128L30.4645 25.3793ZM20.5142 24.4205V22.4205H18.82L18.5414 24.0917L20.5142 24.4205ZM20.1307 58V56H3.08523V58V60H20.1307V58ZM3.08523 58L5.05822 58.3275L12.3025 14.6912L10.3295 14.3636L8.35655 14.0361L1.11223 57.6725L3.08523 58ZM10.3295 14.3636V16.3636H26.6932V14.3636V12.3636H10.3295V14.3636ZM26.6932 14.3636V16.3636C30.9191 16.3636 34.2899 17.2125 36.9154 18.7853L37.9432 17.0696L38.971 15.3539C35.5737 13.3187 31.4446 12.3636 26.6932 12.3636V14.3636ZM37.9432 17.0696L36.9154 18.7853C39.5311 20.3523 41.3766 22.5702 42.4852 25.5097L44.3565 24.804L46.2279 24.0983C44.808 20.3332 42.378 17.3949 38.971 15.3539L37.9432 17.0696ZM44.3565 24.804L42.4852 25.5097C43.5925 28.4459 43.8561 32.0633 43.1292 36.4516L45.1023 36.7784L47.0754 37.1052C47.8826 32.2322 47.649 27.8666 46.2279 24.0983L44.3565 24.804ZM45.1023 36.7784L43.1291 36.4516C42.4323 40.6598 41.0331 44.1769 38.9781 47.0591L40.6065 48.2202L42.235 49.3813C44.697 45.9282 46.295 41.8175 47.0754 37.1052L45.1023 36.7784ZM40.6065 48.2202L38.9746 47.0639C36.9265 49.9547 34.3209 52.1537 31.1336 53.6825L31.9986 55.4858L32.8636 57.2891C36.6649 55.4657 39.798 52.8209 42.2384 49.3764L40.6065 48.2202ZM31.9986 55.4858L31.1307 53.6839C27.9586 55.2117 24.3063 56 20.1307 56V58V60C24.8187 60 29.0783 59.1122 32.8664 57.2877L31.9986 55.4858ZM16.5938 47.9432V49.9432H20.8977V47.9432V45.9432H16.5938V47.9432ZM20.8977 47.9432V49.9432C23.2908 49.9432 25.4999 49.5253 27.4856 48.6409L26.6719 46.8139L25.8582 44.9869C24.4631 45.6082 22.8228 45.9432 20.8977 45.9432V47.9432ZM26.6719 46.8139L27.4926 48.6378C29.6 47.6894 31.3048 46.1248 32.6217 44.0507L30.9332 42.9787L29.2448 41.9067C28.289 43.4121 27.1529 44.4043 25.8511 44.9901L26.6719 46.8139ZM30.9332 42.9787L32.6195 44.0542C33.9685 41.939 34.8639 39.1838 35.3999 35.9082L33.4261 35.5852L31.4524 35.2622C30.9657 38.2367 30.1991 40.4104 29.247 41.9032L30.9332 42.9787ZM33.4261 35.5852L35.3999 35.9079C35.9 32.8488 35.9441 30.1944 35.2892 28.1386L33.3835 28.7457L31.4779 29.3528C31.8457 30.5073 31.9182 32.4126 31.4523 35.2626L33.4261 35.5852ZM33.3835 28.7457L35.2907 28.1435C34.6219 26.0258 33.2769 24.4229 31.2633 23.5457L30.4645 25.3793L29.6657 27.2128C30.5214 27.5856 31.1224 28.2271 31.4764 29.348L33.3835 28.7457ZM30.4645 25.3793L31.2784 23.5524C29.4997 22.7599 27.3411 22.4205 24.9034 22.4205V24.4205V26.4205C27.0112 26.4205 28.5599 26.7202 29.6505 27.2061L30.4645 25.3793ZM24.9034 24.4205V22.4205H20.5142V24.4205V26.4205H24.9034V24.4205ZM20.5142 24.4205L18.5414 24.0917L14.621 47.6144L16.5938 47.9432L18.5665 48.272L22.487 24.7493L20.5142 24.4205ZM46.4891 58L44.5161 57.6725L44.1297 60H46.4891V58ZM53.7335 14.3636V12.3636H52.0381L51.7605 14.0361L53.7335 14.3636ZM85.1823 14.3636L87.1541 14.6981L87.5502 12.3636H85.1823V14.3636ZM83.563 23.9091V25.9091H85.2523L85.5348 24.2436L83.563 23.9091ZM63.9607 23.9091V21.9091H62.2538L61.9856 23.5949L63.9607 23.9091ZM62.7675 31.4091L60.7924 31.0949L60.4242 33.4091H62.7675V31.4091ZM80.7505 31.4091L82.7223 31.7436L83.1184 29.4091H80.7505V31.4091ZM79.1312 40.9545V42.9545H80.8205L81.103 41.2891L79.1312 40.9545ZM61.1482 40.9545V38.9545H59.4413L59.1731 40.6403L61.1482 40.9545ZM59.955 48.4545L57.9799 48.1403L57.6117 50.4545H59.955V48.4545ZM79.4721 48.4545L81.4439 48.7891L81.84 46.4545H79.4721V48.4545ZM77.8528 58V60H79.5421L79.8246 58.3345L77.8528 58ZM46.4891 58L48.4621 58.3275L55.7064 14.6912L53.7335 14.3636L51.7605 14.0361L44.5161 57.6725L46.4891 58ZM53.7335 14.3636V16.3636H85.1823V14.3636V12.3636H53.7335V14.3636ZM85.1823 14.3636L83.2105 14.0291L81.5912 23.5746L83.563 23.9091L85.5348 24.2436L87.1541 14.6981L85.1823 14.3636ZM83.563 23.9091V21.9091H63.9607V23.9091V25.9091H83.563V23.9091ZM63.9607 23.9091L61.9856 23.5949L60.7924 31.0949L62.7675 31.4091L64.7427 31.7233L65.9359 24.2233L63.9607 23.9091ZM62.7675 31.4091V33.4091H80.7505V31.4091V29.4091H62.7675V31.4091ZM80.7505 31.4091L78.7787 31.0746L77.1594 40.62L79.1312 40.9545L81.103 41.2891L82.7223 31.7436L80.7505 31.4091ZM79.1312 40.9545V38.9545H61.1482V40.9545V42.9545H79.1312V40.9545ZM61.1482 40.9545L59.1731 40.6403L57.9799 48.1403L59.955 48.4545L61.9302 48.7688L63.1234 41.2688L61.1482 40.9545ZM59.955 48.4545V50.4545H79.4721V48.4545V46.4545H59.955V48.4545ZM79.4721 48.4545L77.5003 48.12L75.8809 57.6655L77.8528 58L79.8246 58.3345L81.4439 48.7891L79.4721 48.4545ZM77.8528 58V56H46.4891V58V60H77.8528V58ZM128.426 30.7273V32.7273H130.276L130.42 30.8839L128.426 30.7273ZM116.58 30.7273L114.587 30.5589L114.404 32.7273H116.58V30.7273ZM116.409 28L114.467 28.477L114.467 28.4771L116.409 28ZM115.387 25.9119L113.832 27.1703L113.84 27.1795L113.847 27.1886L115.387 25.9119ZM113.49 24.5483L112.748 26.4052L113.49 24.5483ZM105.138 25.6349L106.199 27.3301L106.21 27.3235L105.138 25.6349ZM101.068 30.0455L102.808 31.0321L102.811 31.0266L101.068 30.0455ZM98.7673 36.8636L96.7963 36.5245L96.7936 36.5404L96.7911 36.5562L98.7673 36.8636ZM98.7247 43.2344L96.7708 43.6613L96.7725 43.6691L96.7743 43.6769L98.7247 43.2344ZM100.962 47.027L99.7554 48.6221L99.7652 48.6294L100.962 47.027ZM108.611 47.858L108.069 45.9329L108.062 45.9349L108.611 47.858ZM111.296 46.6435L112.412 48.3029L112.419 48.2984L111.296 46.6435ZM113.32 44.7259L111.724 43.521L111.72 43.5258L113.32 44.7259ZM114.62 42.233V40.233H113.171L112.719 41.6094L114.62 42.233ZM126.551 42.233L128.493 42.711L129.103 40.233H126.551V42.233ZM124.122 47.9006L125.832 48.9389L125.835 48.9333L124.122 47.9006ZM119.605 53.206L120.917 54.7154L120.924 54.7097L119.605 53.206ZM113.086 57.1051L112.346 55.2467L113.086 57.1051ZM94.0585 55.9119L93.0223 57.6226L93.0259 57.6247L94.0585 55.9119ZM87.6239 48.071L85.757 48.7885L85.7596 48.7952L87.6239 48.071ZM86.8355 35.5L84.8627 35.1712L84.8609 35.1822L86.8355 35.5ZM100.088 16.2173L100.964 18.0152L100.088 16.2173ZM118.455 14.8963L117.822 16.7937L117.826 16.7949L118.455 14.8963ZM124.186 18.1989L122.82 19.6592L122.827 19.6657L122.834 19.6721L124.186 18.1989ZM127.638 23.5043L129.525 22.8413V22.8413L127.638 23.5043ZM128.426 30.7273V28.7273H116.58V30.7273V32.7273H128.426V30.7273ZM116.58 30.7273L118.573 30.8957C118.672 29.7154 118.612 28.5832 118.352 27.5229L116.409 28L114.467 28.4771C114.604 29.0361 114.658 29.7221 114.587 30.5589L116.58 30.7273ZM116.409 28L118.352 27.523C118.088 26.4501 117.621 25.4732 116.926 24.6353L115.387 25.9119L113.847 27.1886C114.118 27.5154 114.333 27.9306 114.467 28.477L116.409 28ZM115.387 25.9119L116.941 24.6535C116.223 23.7663 115.3 23.1182 114.233 22.6913L113.49 24.5483L112.748 26.4052C113.243 26.6034 113.584 26.8643 113.832 27.1703L115.387 25.9119ZM113.49 24.5483L114.233 22.6913C113.159 22.2618 111.964 22.0795 110.699 22.0795V24.0795V26.0795C111.593 26.0795 112.259 26.2098 112.748 26.4052L113.49 24.5483ZM110.699 24.0795V22.0795C108.274 22.0795 106.043 22.6913 104.066 23.9464L105.138 25.6349L106.21 27.3235C107.5 26.5047 108.976 26.0795 110.699 26.0795V24.0795ZM105.138 25.6349L104.077 23.9398C102.122 25.1636 100.546 26.8973 99.3257 29.0643L101.068 30.0455L102.811 31.0266C103.75 29.3584 104.887 28.1517 106.199 27.3301L105.138 25.6349ZM101.068 30.0455L99.3288 29.0588C98.1129 31.2025 97.2815 33.7044 96.7963 36.5245L98.7673 36.8636L100.738 37.2027C101.162 34.7388 101.865 32.6952 102.808 31.0321L101.068 30.0455ZM98.7673 36.8636L96.7911 36.5562C96.3724 39.2478 96.3294 41.6411 96.7708 43.6613L98.7247 43.2344L100.679 42.8075C100.381 41.4469 100.367 39.5931 100.744 37.171L98.7673 36.8636ZM98.7247 43.2344L96.7743 43.6769C97.2355 45.7097 98.1854 47.4345 99.7554 48.6221L100.962 47.027L102.168 45.4319C101.523 44.9434 100.981 44.1397 100.675 42.7918L98.7247 43.2344ZM100.962 47.027L99.7652 48.6294C101.319 49.7895 103.229 50.2841 105.33 50.2841V48.2841V46.2841C103.851 46.2841 102.85 45.9406 102.159 45.4246L100.962 47.027ZM105.33 48.2841V50.2841C106.681 50.2841 107.963 50.1233 109.161 49.781L108.611 47.858L108.062 45.9349C107.271 46.1608 106.365 46.2841 105.33 46.2841V48.2841ZM108.611 47.858L109.153 49.783C110.343 49.4478 111.436 48.9595 112.412 48.3029L111.296 46.6435L110.179 44.984C109.593 45.3786 108.896 45.6999 108.069 45.9329L108.611 47.858ZM111.296 46.6435L112.419 48.2984C113.39 47.6396 114.228 46.8487 114.92 45.9259L113.32 44.7259L111.72 43.5258C111.304 44.0803 110.793 44.5678 110.173 44.9885L111.296 46.6435ZM113.32 44.7259L114.916 45.9307C115.619 44.9996 116.154 43.9717 116.52 42.8565L114.62 42.233L112.719 41.6094C112.489 42.3124 112.157 42.9465 111.724 43.521L113.32 44.7259ZM114.62 42.233V44.233H126.551V42.233V40.233H114.62V42.233ZM126.551 42.233L124.609 41.7549C124.211 43.3737 123.489 45.0772 122.41 46.8679L124.122 47.9006L125.835 48.9333C127.085 46.8603 127.983 44.7854 128.493 42.711L126.551 42.233ZM124.122 47.9006L122.413 46.8623C121.364 48.5901 119.995 50.2046 118.287 51.7022L119.605 53.206L120.924 54.7097C122.909 52.9687 124.552 51.0463 125.832 48.9389L124.122 47.9006ZM119.605 53.206L118.293 51.6965C116.633 53.1399 114.658 54.3274 112.346 55.2467L113.086 57.1051L113.825 58.9635C116.513 57.8942 118.885 56.4823 120.917 54.7154L119.605 53.206ZM113.086 57.1051L112.346 55.2467C110.116 56.1337 107.56 56.5966 104.648 56.5966V58.5966V60.5966C107.986 60.5966 111.055 60.0652 113.825 58.9635L113.086 57.1051ZM104.648 58.5966V56.5966C100.855 56.5966 97.696 55.7695 95.0911 54.1991L94.0585 55.9119L93.0259 57.6247C96.3585 59.6339 100.259 60.5966 104.648 60.5966V58.5966ZM94.0585 55.9119L95.0948 54.2013C92.5438 52.656 90.6752 50.4029 89.4882 47.3469L87.6239 48.071L85.7596 48.7952C87.243 52.6142 89.6642 55.5883 93.0223 57.6225L94.0585 55.9119ZM87.6239 48.071L89.4908 47.3536C88.3339 44.3433 88.0514 40.5328 88.8101 35.8178L86.8355 35.5L84.8609 35.1822C84.0288 40.3535 84.2718 44.9237 85.757 48.7885L87.6239 48.071ZM86.8355 35.5L88.8083 35.8288C89.5635 31.2976 91.0357 27.6056 93.1621 24.6802L91.5443 23.5043L89.9265 22.3283C87.3654 25.8518 85.6984 30.1569 84.8627 35.1712L86.8355 35.5ZM91.5443 23.5043L93.1621 24.6802C95.3269 21.7019 97.9268 19.4954 100.964 18.0152L100.088 16.2173L99.2123 14.4194C95.5454 16.2063 92.4492 18.8578 89.9265 22.3283L91.5443 23.5043ZM100.088 16.2173L100.964 18.0152C104.04 16.5165 107.305 15.767 110.784 15.767V13.767V11.767C106.707 11.767 102.841 12.6511 99.2123 14.4194L100.088 16.2173ZM110.784 13.767V15.767C113.466 15.767 115.804 16.1208 117.822 16.7937L118.455 14.8963L119.087 12.9989C116.589 12.1661 113.813 11.767 110.784 11.767V13.767ZM118.455 14.8963L117.826 16.7949C119.86 17.4685 121.509 18.4321 122.82 19.6592L124.186 18.1989L125.553 16.7385C123.768 15.0679 121.596 13.8298 119.084 12.9978L118.455 14.8963ZM124.186 18.1989L122.834 19.6721C124.142 20.8733 125.116 22.3586 125.751 24.1672L127.638 23.5043L129.525 22.8413C128.683 20.4453 127.356 18.3937 125.539 16.7257L124.186 18.1989ZM127.638 23.5043L125.751 24.1672C126.379 25.9553 126.629 28.0753 126.433 30.5707L128.426 30.7273L130.42 30.8839C130.65 27.9531 130.374 25.2577 129.525 22.8413L127.638 23.5043ZM174.494 36.9489L176.466 37.2796L176.467 37.2758L174.494 36.9489ZM169.764 48.8807L168.152 47.6967V47.6967L169.764 48.8807ZM161.177 56.1463L162.05 57.9457L161.177 56.1463ZM139.721 55.9332L140.737 54.2104L139.721 55.9332ZM133.137 48.1349L134.992 47.3882L133.137 48.1349ZM132.306 35.5852L134.279 35.914L134.281 35.9044L132.306 35.5852ZM136.994 23.6108L135.377 22.4336L136.994 23.6108ZM145.623 16.2599L144.744 14.4636L145.623 16.2599ZM167.1 16.4517L166.075 18.1688L166.078 18.171L167.1 16.4517ZM173.663 24.3139L171.803 25.0488L171.805 25.0554L173.663 24.3139ZM162.562 35.5852L164.534 35.9174L164.536 35.9084L164.537 35.8995L162.562 35.5852ZM162.647 29.2784L160.685 29.6675L160.686 29.6706L162.647 29.2784ZM160.495 25.4006L159.241 26.9583L159.247 26.9633L159.253 26.9682L160.495 25.4006ZM150.502 25.6136L149.434 23.9227L150.502 25.6136ZM144.238 36.9489L146.206 37.3027L146.21 37.2818L146.214 37.2608L144.238 36.9489ZM144.11 43.2557L142.157 43.686L142.159 43.6939L142.161 43.7018L144.11 43.2557ZM146.369 47.027L145.172 48.6294L145.182 48.6366L146.369 47.027ZM156.298 46.7926L155.244 45.0924L155.238 45.0966L156.298 46.7926ZM160.282 42.4673L158.54 41.4849L158.534 41.4949L160.282 42.4673ZM174.494 36.9489L172.521 36.6181C171.767 41.1171 170.29 44.7859 168.152 47.6967L169.764 48.8807L171.375 50.0646C173.953 46.555 175.63 42.2692 176.466 37.2796L174.494 36.9489ZM169.764 48.8807L168.152 47.6967C165.973 50.6622 163.359 52.8646 160.304 54.347L161.177 56.1463L162.05 57.9457C165.728 56.161 168.838 53.5196 171.375 50.0646L169.764 48.8807ZM161.177 56.1463L160.304 54.347C157.216 55.8451 153.915 56.5966 150.374 56.5966V58.5966V60.5966C154.504 60.5966 158.404 59.7146 162.05 57.9457L161.177 56.1463ZM150.374 58.5966V56.5966C146.579 56.5966 143.391 55.7757 140.737 54.2104L139.721 55.9332L138.705 57.6561C142.073 59.642 145.988 60.5966 150.374 60.5966V58.5966ZM139.721 55.9332L140.737 54.2104C138.127 52.6717 136.216 50.4268 134.992 47.3882L133.137 48.1349L131.282 48.8817C132.814 52.6897 135.292 55.6436 138.705 57.6561L139.721 55.9332ZM133.137 48.1349L134.992 47.3882C133.793 44.407 133.495 40.62 134.279 35.914L132.306 35.5852L130.333 35.2564C129.47 40.4368 129.726 45.0163 131.282 48.8817L133.137 48.1349ZM132.306 35.5852L134.281 35.9044C135.007 31.4089 136.471 27.7268 138.611 24.788L136.994 23.6108L135.377 22.4336C132.801 25.9721 131.139 30.2729 130.332 35.266L132.306 35.5852ZM136.994 23.6108L138.611 24.788C140.789 21.7965 143.418 19.5664 146.502 18.0562L145.623 16.2599L144.744 14.4636C141.039 16.2774 137.915 18.9479 135.377 22.4336L136.994 23.6108ZM145.623 16.2599L146.502 18.0562C149.617 16.5314 152.945 15.767 156.511 15.767V13.767V11.767C152.349 11.767 148.418 12.6646 144.744 14.4636L145.623 16.2599ZM156.511 13.767V15.767C160.272 15.767 163.435 16.5927 166.075 18.1688L167.1 16.4517L168.126 14.7346C164.771 12.7312 160.874 11.767 156.511 11.767V13.767ZM167.1 16.4517L166.078 18.171C168.686 19.7205 170.591 21.9828 171.803 25.0488L173.663 24.3139L175.523 23.5791C174.007 19.7417 171.538 16.7625 168.122 14.7324L167.1 16.4517ZM173.663 24.3139L171.805 25.0554C173.008 28.0681 173.305 31.8867 172.521 36.6219L174.494 36.9489L176.467 37.2758C177.33 32.0679 177.073 27.4632 175.52 23.5725L173.663 24.3139ZM162.562 35.5852L164.537 35.8995C164.957 33.2624 165.012 30.9038 164.608 28.8862L162.647 29.2784L160.686 29.6706C160.964 31.0621 160.963 32.908 160.587 35.271L162.562 35.5852ZM162.647 29.2784L164.609 28.8893C164.2 26.8274 163.291 25.0636 161.737 23.8329L160.495 25.4006L159.253 26.9682C159.887 27.4704 160.412 28.2919 160.685 29.6675L162.647 29.2784ZM160.495 25.4006L161.749 23.8428C160.202 22.5967 158.243 22.0795 156.085 22.0795V24.0795V26.0795C157.62 26.0795 158.601 26.443 159.241 26.9583L160.495 25.4006ZM156.085 24.0795V22.0795C153.643 22.0795 151.404 22.6786 149.434 23.9227L150.502 25.6136L151.57 27.3046C152.839 26.5033 154.322 26.0795 156.085 26.0795V24.0795ZM150.502 25.6136L149.434 23.9227C147.492 25.149 145.931 26.8852 144.727 29.0529L146.475 30.0241L148.224 30.9954C149.15 29.3279 150.273 28.1237 151.57 27.3046L150.502 25.6136ZM146.475 30.0241L144.727 29.0529C143.524 31.2186 142.717 33.7613 142.262 36.6369L144.238 36.9489L146.214 37.2608C146.612 34.7387 147.296 32.6649 148.224 30.9954L146.475 30.0241ZM144.238 36.9489L142.27 36.595C141.789 39.2663 141.71 41.657 142.157 43.686L144.11 43.2557L146.063 42.8253C145.772 41.5021 145.778 39.6883 146.206 37.3027L144.238 36.9489ZM144.11 43.2557L142.161 43.7018C142.625 45.7312 143.589 47.4469 145.172 48.6294L146.369 47.027L147.565 45.4246C146.905 44.931 146.362 44.1324 146.06 42.8096L144.11 43.2557ZM146.369 47.027L145.182 48.6366C146.749 49.7928 148.678 50.2841 150.8 50.2841V48.2841V46.2841C149.286 46.2841 148.261 45.9373 147.556 45.4174L146.369 47.027ZM150.8 48.2841V50.2841C153.208 50.2841 155.416 49.7022 157.358 48.4886L156.298 46.7926L155.238 45.0966C153.998 45.8717 152.54 46.2841 150.8 46.2841V48.2841ZM156.298 46.7926L157.351 48.4928C159.285 47.2944 160.837 45.583 162.03 43.4397L160.282 42.4673L158.534 41.4949C157.625 43.13 156.52 44.3022 155.244 45.0924L156.298 46.7926ZM160.282 42.4673L162.024 43.4497C163.229 41.3137 164.051 38.7875 164.534 35.9174L162.562 35.5852L160.59 35.2531C160.164 37.7807 159.466 39.8425 158.54 41.4849L160.282 42.4673ZM175.881 58L173.908 57.6725L173.521 60H175.881V58ZM183.125 14.3636V12.3636H181.43L181.152 14.0361L183.125 14.3636ZM210.738 17.0696L209.711 18.7853L210.738 17.0696ZM217.152 24.804L215.281 25.5097V25.5097L217.152 24.804ZM217.898 36.7784L215.924 36.4516L215.924 36.4516L217.898 36.7784ZM213.402 48.2202L211.773 47.0591L211.77 47.0639L213.402 48.2202ZM204.794 55.4858L203.929 53.6825L203.926 53.6839L204.794 55.4858ZM189.389 47.9432L187.416 47.6144L187.028 49.9432H189.389V47.9432ZM199.467 46.8139L200.281 48.6409L200.288 48.6378L199.467 46.8139ZM203.729 42.9787L202.042 41.9032L202.04 41.9067L203.729 42.9787ZM206.221 35.5852L208.195 35.9082L208.195 35.9079L206.221 35.5852ZM206.179 28.7457L204.272 29.348L204.273 29.3528L206.179 28.7457ZM203.26 25.3793L202.446 27.2061L202.453 27.2095L202.461 27.2128L203.26 25.3793ZM193.31 24.4205V22.4205H191.615L191.337 24.0917L193.31 24.4205ZM192.926 58V56H175.881V58V60H192.926V58ZM175.881 58L177.854 58.3275L185.098 14.6912L183.125 14.3636L181.152 14.0361L173.908 57.6725L175.881 58ZM183.125 14.3636V16.3636H199.488V14.3636V12.3636H183.125V14.3636ZM199.488 14.3636V16.3636C203.714 16.3636 207.085 17.2125 209.711 18.7853L210.738 17.0696L211.766 15.3539C208.369 13.3187 204.24 12.3636 199.488 12.3636V14.3636ZM210.738 17.0696L209.711 18.7853C212.326 20.3523 214.172 22.5702 215.281 25.5097L217.152 24.804L219.023 24.0983C217.603 20.3332 215.173 17.3949 211.766 15.3539L210.738 17.0696ZM217.152 24.804L215.281 25.5097C216.388 28.4459 216.651 32.0633 215.924 36.4516L217.898 36.7784L219.871 37.1052C220.678 32.2322 220.444 27.8666 219.023 24.0983L217.152 24.804ZM217.898 36.7784L215.924 36.4516C215.228 40.6598 213.828 44.1769 211.773 47.0591L213.402 48.2202L215.03 49.3813C217.492 45.9282 219.09 41.8175 219.871 37.1052L217.898 36.7784ZM213.402 48.2202L211.77 47.0639C209.722 49.9547 207.116 52.1537 203.929 53.6825L204.794 55.4858L205.659 57.2891C209.46 55.4657 212.593 52.8209 215.034 49.3764L213.402 48.2202ZM204.794 55.4858L203.926 53.6839C200.754 55.2117 197.102 56 192.926 56V58V60C197.614 60 201.874 59.1122 205.662 57.2877L204.794 55.4858ZM189.389 47.9432V49.9432H193.693V47.9432V45.9432H189.389V47.9432ZM193.693 47.9432V49.9432C196.086 49.9432 198.295 49.5253 200.281 48.6409L199.467 46.8139L198.653 44.9869C197.258 45.6082 195.618 45.9432 193.693 45.9432V47.9432ZM199.467 46.8139L200.288 48.6378C202.395 47.6894 204.1 46.1248 205.417 44.0507L203.729 42.9787L202.04 41.9067C201.084 43.4121 199.948 44.4043 198.646 44.9901L199.467 46.8139ZM203.729 42.9787L205.415 44.0542C206.764 41.939 207.659 39.1838 208.195 35.9082L206.221 35.5852L204.248 35.2622C203.761 38.2367 202.994 40.4104 202.042 41.9032L203.729 42.9787ZM206.221 35.5852L208.195 35.9079C208.695 32.8488 208.739 30.1944 208.084 28.1386L206.179 28.7457L204.273 29.3528C204.641 30.5073 204.714 32.4126 204.248 35.2626L206.221 35.5852ZM206.179 28.7457L208.086 28.1435C207.417 26.0258 206.072 24.4229 204.059 23.5457L203.26 25.3793L202.461 27.2128C203.317 27.5856 203.918 28.2271 204.272 29.348L206.179 28.7457ZM203.26 25.3793L204.074 23.5524C202.295 22.7599 200.136 22.4205 197.699 22.4205V24.4205V26.4205C199.807 26.4205 201.355 26.7202 202.446 27.2061L203.26 25.3793ZM197.699 24.4205V22.4205H193.31V24.4205V26.4205H197.699V24.4205ZM193.31 24.4205L191.337 24.0917L187.416 47.6144L189.389 47.9432L191.362 48.272L195.282 24.7493L193.31 24.4205ZM219.284 58L217.311 57.6725L216.925 60H219.284V58ZM226.529 14.3636V12.3636H224.833L224.556 14.0361L226.529 14.3636ZM257.978 14.3636L259.949 14.6981L260.345 12.3636H257.978V14.3636ZM256.358 23.9091V25.9091H258.048L258.33 24.2436L256.358 23.9091ZM236.756 23.9091V21.9091H235.049L234.781 23.5949L236.756 23.9091ZM235.563 31.4091L233.588 31.0949L233.22 33.4091H235.563V31.4091ZM253.546 31.4091L255.518 31.7436L255.914 29.4091H253.546V31.4091ZM251.926 40.9545V42.9545H253.616L253.898 41.2891L251.926 40.9545ZM233.944 40.9545V38.9545H232.237L231.968 40.6403L233.944 40.9545ZM232.75 48.4545L230.775 48.1403L230.407 50.4545H232.75V48.4545ZM252.267 48.4545L254.239 48.7891L254.635 46.4545H252.267V48.4545ZM250.648 58V60H252.337L252.62 58.3345L250.648 58ZM219.284 58L221.257 58.3275L228.502 14.6912L226.529 14.3636L224.556 14.0361L217.311 57.6725L219.284 58ZM226.529 14.3636V16.3636H257.978V14.3636V12.3636H226.529V14.3636ZM257.978 14.3636L256.006 14.0291L254.386 23.5746L256.358 23.9091L258.33 24.2436L259.949 14.6981L257.978 14.3636ZM256.358 23.9091V21.9091H236.756V23.9091V25.9091H256.358V23.9091ZM236.756 23.9091L234.781 23.5949L233.588 31.0949L235.563 31.4091L237.538 31.7233L238.731 24.2233L236.756 23.9091ZM235.563 31.4091V33.4091H253.546V31.4091V29.4091H235.563V31.4091ZM253.546 31.4091L251.574 31.0746L249.955 40.62L251.926 40.9545L253.898 41.2891L255.518 31.7436L253.546 31.4091ZM251.926 40.9545V38.9545H233.944V40.9545V42.9545H251.926V40.9545ZM233.944 40.9545L231.968 40.6403L230.775 48.1403L232.75 48.4545L234.726 48.7688L235.919 41.2688L233.944 40.9545ZM232.75 48.4545V50.4545H252.267V48.4545V46.4545H232.75V48.4545ZM252.267 48.4545L250.296 48.12L248.676 57.6655L250.648 58L252.62 58.3345L254.239 48.7891L252.267 48.4545ZM250.648 58V56H219.284V58V60H250.648V58ZM258.757 56.956L257.263 58.2858L257.272 58.2954L257.281 58.3049L258.757 56.956ZM257.458 52.7159L255.469 52.5065L255.468 52.5119L257.458 52.7159ZM259.652 48.5611L258.33 47.06L258.322 47.0672L259.652 48.5611ZM268.047 48.5611L266.57 49.9101L266.579 49.9199L268.047 48.5611ZM269.389 52.7159L267.4 52.5065L267.4 52.5119L269.389 52.7159ZM268.217 55.7415L266.605 54.5577L266.602 54.5621L268.217 55.7415ZM265.788 57.8935L266.755 59.6443L266.764 59.6394L265.788 57.8935ZM262.827 58.6818V56.6818C261.685 56.6818 260.879 56.3128 260.234 55.607L258.757 56.956L257.281 58.3049C258.738 59.9003 260.645 60.6818 262.827 60.6818V58.6818ZM258.757 56.956L260.251 55.6261C259.616 54.9129 259.329 54.0684 259.447 52.92L257.458 52.7159L255.468 52.5119C255.245 54.6873 255.825 56.6695 257.263 58.2858L258.757 56.956ZM257.458 52.7159L259.447 52.9253C259.561 51.8343 260.036 50.8971 260.982 50.055L259.652 48.5611L258.322 47.0672C256.683 48.5261 255.695 50.3589 255.469 52.5065L257.458 52.7159ZM259.652 48.5611L260.974 50.0622C261.934 49.2164 262.955 48.8352 264.105 48.8352V46.8352V44.8352C261.932 44.8352 259.983 45.6046 258.331 47.06L259.652 48.5611ZM264.105 46.8352V48.8352C265.128 48.8352 265.903 49.1798 266.57 49.91L268.047 48.5611L269.524 47.2121C268.089 45.6413 266.236 44.8352 264.105 44.8352V46.8352ZM268.047 48.5611L266.579 49.9199C267.236 50.6292 267.513 51.4356 267.4 52.5065L269.389 52.7159L271.378 52.9253C271.607 50.7576 270.988 48.7941 269.515 47.2023L268.047 48.5611ZM269.389 52.7159L267.4 52.5119C267.323 53.2607 267.065 53.9319 266.605 54.5577L268.217 55.7415L269.829 56.9253C270.705 55.7329 271.228 54.387 271.379 52.92L269.389 52.7159ZM268.217 55.7415L266.602 54.5621C266.118 55.2246 265.527 55.7486 264.813 56.1476L265.788 57.8935L266.764 59.6394C267.982 58.9588 269.01 58.0481 269.833 56.9209L268.217 55.7415ZM265.788 57.8935L264.822 56.1427C264.147 56.5154 263.49 56.6818 262.827 56.6818V58.6818V60.6818C264.209 60.6818 265.527 60.3226 266.755 59.6442L265.788 57.8935ZM274.159 58L272.186 57.6725L271.799 60H274.159V58ZM281.403 14.3636V12.3636H279.708L279.43 14.0361L281.403 14.3636ZM293.25 14.3636L295.223 14.6892L295.607 12.3636H293.25V14.3636ZM287.625 48.4545L285.651 48.1289L285.268 50.4545H287.625V48.4545ZM305.267 48.4545L307.238 48.7891L307.634 46.4545H305.267V48.4545ZM303.647 58V60H305.337L305.619 58.3345L303.647 58ZM274.159 58L276.132 58.3275L283.376 14.6912L281.403 14.3636L279.43 14.0361L272.186 57.6725L274.159 58ZM281.403 14.3636V16.3636H293.25V14.3636V12.3636H281.403V14.3636ZM293.25 14.3636L291.276 14.038L285.651 48.1289L287.625 48.4545L289.598 48.7801L295.223 14.6892L293.25 14.3636ZM287.625 48.4545V50.4545H305.267V48.4545V46.4545H287.625V48.4545ZM305.267 48.4545L303.295 48.12L301.675 57.6655L303.647 58L305.619 58.3345L307.238 48.7891L305.267 48.4545ZM303.647 58V56H274.159V58V60H303.647V58ZM311.693 57.4886L310.84 59.2979L310.851 59.3028L310.861 59.3076L311.693 57.4886ZM308.454 54.3352L306.644 55.186L306.649 55.1969L306.654 55.2078L308.454 54.3352ZM308.006 48.9659L309.978 49.3031L309.979 49.2947L308.006 48.9659ZM309.69 44.3849L311.365 45.4769L309.69 44.3849ZM312.758 41.2741L313.863 42.9412L312.758 41.2741ZM316.87 39.4205L317.41 41.3462L317.422 41.3428L316.87 39.4205ZM321.728 38.5682L321.878 40.5626L321.881 40.5623L321.728 38.5682ZM326.224 38.0355L325.86 36.0689L326.224 38.0355ZM328.802 37.1619L327.712 35.485V35.485L328.802 37.1619ZM329.825 35.6705L331.792 36.0282L331.825 35.8508V35.6705H329.825ZM329.825 35.5852L327.847 35.2885L327.825 35.4361V35.5852H329.825ZM329.143 33.625L327.893 35.1867L327.903 35.1942L327.912 35.2016L329.143 33.625ZM323.88 33.6676L322.855 31.95L322.849 31.954L322.842 31.958L323.88 33.6676ZM322.239 35.9261V37.9261H323.739L324.159 36.4861L322.239 35.9261ZM311.416 35.9261L309.466 35.4805L308.907 37.9261H311.416V35.9261ZM314.207 30.429L312.676 29.1423L312.675 29.1435L314.207 30.429ZM319.853 26.3807L320.644 28.2178L320.649 28.2155L319.853 26.3807ZM334.427 25.6776L333.827 27.5854L333.834 27.5876L333.841 27.5898L334.427 25.6776ZM338.795 27.9574L337.498 29.4799L337.508 29.4885L337.518 29.4969L338.795 27.9574ZM341.245 31.3665L339.363 32.0417L339.367 32.0541L339.372 32.0665L341.245 31.3665ZM341.586 35.5852L339.614 35.2534L339.613 35.2552L341.586 35.5852ZM337.836 58V60H339.529L339.809 58.33L337.836 58ZM326.842 58L324.869 57.6712L324.481 60H326.842V58ZM327.609 53.3977L329.582 53.7265L329.97 51.3977H327.609V53.3977ZM327.353 53.3977V51.3977H326.31L325.713 52.2534L327.353 53.3977ZM324.477 56.3594L323.322 54.726L323.312 54.7334L324.477 56.3594ZM321.025 58L320.499 56.0705L320.493 56.072L321.025 58ZM324.754 50.5426L325.549 52.3777L324.754 50.5426ZM326.948 48.9446L328.451 50.2638L326.948 48.9446ZM328.12 46.4091L330.091 46.747L330.094 46.7324L330.096 46.7178L328.12 46.4091ZM328.546 43.6818L330.522 43.9906L331.069 40.4887L327.789 41.8307L328.546 43.6818ZM327.502 44.044L328.022 45.9753L328.046 45.9688L328.07 45.9616L327.502 44.044ZM326.33 44.3423L325.861 42.3982L325.853 42.4001L325.845 42.402L326.33 44.3423ZM325.052 44.6193L324.683 42.6535L324.672 42.6558L325.052 44.6193ZM323.688 44.875L323.988 46.8524L324.017 46.848L324.046 46.8427L323.688 44.875ZM321.323 45.5781L322.202 47.3749L322.218 47.3671L322.233 47.359L321.323 45.5781ZM319.832 46.75L321.408 47.9813L321.417 47.9696L321.426 47.9577L319.832 46.75ZM319.171 48.2841L317.193 47.9874L317.191 48.0012L319.171 48.2841ZM319.789 50.3722L318.434 51.8433L318.454 51.8618L318.475 51.8797L319.789 50.3722ZM317.041 58.5114V56.5114C315.18 56.5114 313.695 56.205 312.524 55.6697L311.693 57.4886L310.861 59.3076C312.673 60.1359 314.753 60.5114 317.041 60.5114V58.5114ZM311.693 57.4886L312.545 55.6794C311.461 55.1687 310.726 54.4381 310.254 53.4627L308.454 54.3352L306.654 55.2078C307.545 57.0448 308.969 58.4165 310.84 59.2979L311.693 57.4886ZM308.454 54.3352L310.264 53.4845C309.827 52.5545 309.651 51.2136 309.978 49.3031L308.006 48.9659L306.035 48.6287C305.623 51.0364 305.746 53.2751 306.644 55.186L308.454 54.3352ZM308.006 48.9659L309.979 49.2947C310.241 47.7231 310.719 46.4681 311.365 45.4769L309.69 44.3849L308.014 43.293C307.012 44.8302 306.368 46.6292 306.034 48.6371L308.006 48.9659ZM309.69 44.3849L311.365 45.4769C312.045 44.4344 312.875 43.5956 313.863 42.9412L312.758 41.2741L311.653 39.6071C310.197 40.572 308.982 41.8071 308.014 43.293L309.69 44.3849ZM312.758 41.2741L313.863 42.9412C314.898 42.2552 316.075 41.7204 317.41 41.3462L316.87 39.4205L316.33 37.4947C314.625 37.9728 313.061 38.6737 311.653 39.6071L312.758 41.2741ZM316.87 39.4205L317.422 41.3428C318.816 40.9427 320.3 40.6809 321.878 40.5626L321.728 38.5682L321.578 36.5738C319.747 36.7111 317.993 37.0175 316.318 37.4981L316.87 39.4205ZM321.728 38.5682L321.881 40.5623C323.763 40.4175 325.34 40.2332 326.588 40.0021L326.224 38.0355L325.86 36.0689C324.807 36.2639 323.386 36.4347 321.575 36.5741L321.728 38.5682ZM326.224 38.0355L326.588 40.0021C327.837 39.7709 328.998 39.4196 329.892 38.8388L328.802 37.1619L327.712 35.485C327.469 35.6429 326.912 35.874 325.86 36.0689L326.224 38.0355ZM328.802 37.1619L329.892 38.8388C330.887 38.1918 331.573 37.2342 331.792 36.0282L329.825 35.6705L327.857 35.3127C327.848 35.3631 327.837 35.3773 327.834 35.381C327.83 35.3873 327.803 35.426 327.712 35.485L328.802 37.1619ZM329.825 35.6705H331.825V35.5852H329.825H327.825V35.6705H329.825ZM329.825 35.5852L331.803 35.8819C332.016 34.4583 331.629 33.0287 330.373 32.0484L329.143 33.625L327.912 35.2016C327.923 35.2102 327.914 35.2051 327.898 35.1832C327.882 35.1606 327.869 35.135 327.861 35.113C327.845 35.0675 327.874 35.1055 327.847 35.2885L329.825 35.5852ZM329.143 33.625L330.392 32.0633C329.35 31.2296 328.052 30.9432 326.756 30.9432V32.9432V34.9432C327.506 34.9432 327.799 35.1113 327.893 35.1867L329.143 33.625ZM326.756 32.9432V30.9432C325.352 30.9432 324.026 31.252 322.855 31.95L323.88 33.6676L324.905 35.3853C325.354 35.1173 325.945 34.9432 326.756 34.9432V32.9432ZM323.88 33.6676L322.842 31.958C321.557 32.7381 320.736 33.9379 320.319 35.3661L322.239 35.9261L324.159 36.4861C324.339 35.8689 324.612 35.563 324.918 35.3772L323.88 33.6676ZM322.239 35.9261V33.9261H311.416V35.9261V37.9261H322.239V35.9261ZM311.416 35.9261L313.365 36.3718C313.744 34.7144 314.521 33.1657 315.739 31.7144L314.207 30.429L312.675 29.1435C311.08 31.0445 309.996 33.1606 309.466 35.4805L311.416 35.9261ZM314.207 30.429L315.738 31.7157C316.929 30.2986 318.542 29.1223 320.644 28.2178L319.853 26.3807L319.063 24.5435C316.477 25.6561 314.326 27.1786 312.676 29.1423L314.207 30.429ZM319.853 26.3807L320.649 28.2155C322.697 27.327 325.226 26.8466 328.291 26.8466V24.8466V22.8466C324.821 22.8466 321.725 23.3889 319.057 24.5458L319.853 26.3807ZM328.291 24.8466V26.8466C330.467 26.8466 332.303 27.1061 333.827 27.5854L334.427 25.6776L335.027 23.7697C333.028 23.1411 330.773 22.8466 328.291 22.8466V24.8466ZM334.427 25.6776L333.841 27.5898C335.397 28.0666 336.595 28.7111 337.498 29.4799L338.795 27.9574L340.092 26.4349C338.693 25.2434 336.98 24.368 335.013 23.7653L334.427 25.6776ZM338.795 27.9574L337.518 29.4969C338.433 30.2554 339.025 31.102 339.363 32.0417L341.245 31.3665L343.128 30.6912C342.527 29.0173 341.486 27.5912 340.072 26.4179L338.795 27.9574ZM341.245 31.3665L339.372 32.0665C339.718 32.9925 339.818 34.0387 339.614 35.2534L341.586 35.5852L343.558 35.917C343.865 34.092 343.739 32.3256 343.119 30.6665L341.245 31.3665ZM341.586 35.5852L339.613 35.2552L335.863 57.67L337.836 58L339.809 58.33L343.559 35.9152L341.586 35.5852ZM337.836 58V56H326.842V58V60H337.836V58ZM326.842 58L328.814 58.3288L329.582 53.7265L327.609 53.3977L325.636 53.0689L324.869 57.6712L326.842 58ZM327.609 53.3977V51.3977H327.353V53.3977V55.3977H327.609V53.3977ZM327.353 53.3977L325.713 52.2534C324.974 53.3116 324.174 54.1243 323.322 54.726L324.477 56.3594L325.631 57.9927C326.91 57.0887 328.027 55.927 328.993 54.5421L327.353 53.3977ZM324.477 56.3594L323.312 54.7334C322.454 55.3477 321.52 55.7919 320.499 56.0705L321.025 58L321.551 59.9295C323.03 59.5263 324.397 58.8768 325.641 57.9854L324.477 56.3594ZM321.025 58L320.493 56.072C319.448 56.3603 318.3 56.5114 317.041 56.5114V58.5114V60.5114C318.622 60.5114 320.13 60.3215 321.557 59.928L321.025 58ZM322.154 51.0966V53.0966C323.323 53.0966 324.46 52.8498 325.549 52.3777L324.754 50.5426L323.958 48.7075C323.343 48.9741 322.746 49.0966 322.154 49.0966V51.0966ZM324.754 50.5426L325.549 52.3777C326.672 51.8912 327.645 51.1827 328.451 50.2638L326.948 48.9446L325.445 47.6254C325.03 48.0986 324.54 48.4553 323.958 48.7075L324.754 50.5426ZM326.948 48.9446L328.451 50.2638C329.328 49.2655 329.864 48.0716 330.091 46.747L328.12 46.4091L326.149 46.0712C326.035 46.7352 325.791 47.2316 325.445 47.6254L326.948 48.9446ZM328.12 46.4091L330.096 46.7178L330.522 43.9906L328.546 43.6818L326.57 43.3731L326.144 46.1003L328.12 46.4091ZM328.546 43.6818L327.789 41.8307C327.548 41.9291 327.265 42.0284 326.934 42.1264L327.502 44.044L328.07 45.9616C328.507 45.8324 328.919 45.6902 329.304 45.5329L328.546 43.6818ZM327.502 44.044L326.982 42.1128C326.631 42.2072 326.258 42.3024 325.861 42.3982L326.33 44.3423L326.8 46.2865C327.227 46.1834 327.634 46.0797 328.022 45.9753L327.502 44.044ZM326.33 44.3423L325.845 42.402C325.491 42.4907 325.104 42.5748 324.683 42.6536L325.052 44.6193L325.421 46.5851C325.909 46.4934 326.375 46.3928 326.815 46.2826L326.33 44.3423ZM325.052 44.6193L324.672 42.6558C324.239 42.7395 323.792 42.8233 323.331 42.9073L323.688 44.875L324.046 46.8427C324.522 46.7562 324.984 46.6696 325.432 46.5829L325.052 44.6193ZM323.688 44.875L323.389 42.8976C322.303 43.0621 321.294 43.3469 320.413 43.7973L321.323 45.5781L322.233 47.359C322.631 47.1559 323.199 46.972 323.988 46.8524L323.688 44.875ZM321.323 45.5781L320.445 43.7814C319.583 44.2029 318.818 44.7768 318.238 45.5423L319.832 46.75L321.426 47.9577C321.556 47.7857 321.786 47.5783 322.202 47.3749L321.323 45.5781ZM319.832 46.75L318.256 45.5187C317.689 46.2438 317.33 47.0768 317.193 47.9874L319.171 48.2841L321.149 48.5808C321.183 48.355 321.264 48.1653 321.408 47.9813L319.832 46.75ZM319.171 48.2841L317.191 48.0012C316.995 49.3769 317.295 50.7944 318.434 51.8433L319.789 50.3722L321.144 48.9011C321.135 48.8927 321.137 48.8931 321.143 48.902C321.149 48.9111 321.149 48.9159 321.148 48.9098C321.144 48.8964 321.118 48.7977 321.151 48.5669L319.171 48.2841ZM319.789 50.3722L318.475 51.8797C319.514 52.7854 320.837 53.0966 322.154 53.0966V51.0966V49.0966C321.426 49.0966 321.172 48.9248 321.103 48.8646L319.789 50.3722ZM342.685 58L340.712 57.6725L340.326 60H342.685V58ZM349.93 14.3636V12.3636H348.234L347.957 14.0361L349.93 14.3636ZM361.691 14.3636L363.665 14.6875L364.046 12.3636H361.691V14.3636ZM358.964 30.983L356.99 30.6591L356.609 32.983H358.964V30.983ZM359.134 30.983V32.983H360.329L360.895 31.9312L359.134 30.983ZM361.499 27.9361L362.871 29.3919L362.876 29.3866L362.882 29.3814L361.499 27.9361ZM364.951 25.6989L365.724 27.5432L365.733 27.5397L365.741 27.5361L364.951 25.6989ZM375.221 26.5724L374.121 28.2428L374.127 28.2469L375.221 26.5724ZM379.077 32.0057L377.177 32.6283L377.18 32.6381L379.077 32.0057ZM379.333 41.6364L377.36 41.3099L377.36 41.31L379.333 41.6364ZM376.009 51.0327L374.325 49.9546L376.009 51.0327ZM370.384 56.5938L369.399 54.8531L370.384 56.5938ZM359.667 57.6804L358.829 59.4963L358.843 59.5028L358.857 59.509L359.667 57.6804ZM356.961 55.6136L355.379 56.838L355.39 56.8522L355.402 56.8661L356.961 55.6136ZM355.555 52.6307L357.503 52.181L357.146 50.6307H355.555V52.6307ZM355.214 52.6307V50.6307H353.506L353.238 52.3171L355.214 52.6307ZM354.361 58V60H356.069L356.337 58.3135L354.361 58ZM356.918 41.6364L358.893 41.9537L358.894 41.9483L356.918 41.6364ZM356.876 45.7699L354.913 46.1529L354.913 46.1575L356.876 45.7699ZM358.218 48.4545L356.835 49.8992L356.843 49.9069L356.851 49.9146L358.218 48.4545ZM363.758 48.4759L364.91 50.1105L364.919 50.1043L364.928 50.0979L363.758 48.4759ZM365.952 45.8125L367.728 46.7331L367.732 46.7243L365.952 45.8125ZM367.231 41.6364L365.255 41.3244V41.3244L367.231 41.6364ZM367.295 37.4815L365.327 37.8414L365.328 37.8457L367.295 37.4815ZM365.995 34.8182L364.612 36.2635L364.621 36.2714L364.629 36.2792L365.995 34.8182ZM360.455 34.8182L361.595 36.4616L361.604 36.4555L361.613 36.4492L360.455 34.8182ZM358.218 37.4815L359.984 38.4193L359.989 38.4104L358.218 37.4815ZM342.685 58L344.658 58.3275L351.903 14.6912L349.93 14.3636L347.957 14.0361L340.712 57.6725L342.685 58ZM349.93 14.3636V16.3636H361.691V14.3636V12.3636H349.93V14.3636ZM361.691 14.3636L359.717 14.0398L356.99 30.6591L358.964 30.983L360.937 31.3068L363.665 14.6875L361.691 14.3636ZM358.964 30.983V32.983H359.134V30.983V28.983H358.964V30.983ZM359.134 30.983L360.895 31.9312C361.383 31.025 362.036 30.1783 362.871 29.3919L361.499 27.9361L360.128 26.4803C359.002 27.5405 358.078 28.725 357.373 30.0348L359.134 30.983ZM361.499 27.9361L362.882 29.3814C363.675 28.6224 364.616 28.008 365.724 27.5432L364.951 25.6989L364.177 23.8545C362.643 24.4977 361.283 25.3748 360.117 26.4908L361.499 27.9361ZM364.951 25.6989L365.741 27.5361C366.783 27.0881 367.98 26.8466 369.361 26.8466V24.8466V22.8466C367.505 22.8466 365.761 23.1733 364.161 23.8616L364.951 25.6989ZM369.361 24.8466V26.8466C371.143 26.8466 372.711 27.3145 374.121 28.2428L375.221 26.5724L376.321 24.9021C374.236 23.5293 371.898 22.8466 369.361 22.8466V24.8466ZM375.221 26.5724L374.127 28.2469C375.425 29.0945 376.474 30.484 377.177 32.6283L379.077 32.0057L380.978 31.3831C380.061 28.5842 378.54 26.3516 376.315 24.898L375.221 26.5724ZM379.077 32.0057L377.18 32.6381C377.86 34.6791 377.986 37.5253 377.36 41.3099L379.333 41.6364L381.306 41.9629C381.987 37.8497 381.942 34.2755 380.975 31.3732L379.077 32.0057ZM379.333 41.6364L377.36 41.31C376.766 44.8969 375.733 47.7543 374.325 49.9546L376.009 51.0327L377.694 52.1108C379.467 49.3395 380.649 45.9326 381.306 41.9628L379.333 41.6364ZM376.009 51.0327L374.325 49.9546C372.876 52.2177 371.225 53.8198 369.399 54.8531L370.384 56.5938L371.369 58.3344C373.861 56.9245 375.96 54.8193 377.694 52.1108L376.009 51.0327ZM370.384 56.5938L369.399 54.8531C367.52 55.9161 365.613 56.4261 363.651 56.4261V58.4261V60.4261C366.348 60.4261 368.93 59.7146 371.369 58.3344L370.384 56.5938ZM363.651 58.4261V56.4261C362.328 56.4261 361.289 56.2114 360.477 55.8518L359.667 57.6804L358.857 59.509C360.289 60.1437 361.906 60.4261 363.651 60.4261V58.4261ZM359.667 57.6804L360.505 55.8645C359.65 55.4698 359.004 54.9637 358.52 54.3611L356.961 55.6136L355.402 56.8661C356.31 57.9965 357.468 58.8683 358.829 59.4963L359.667 57.6804ZM356.961 55.6136L358.542 54.3893C358.041 53.7421 357.695 53.0133 357.503 52.181L355.555 52.6307L353.606 53.0804C353.925 54.464 354.517 55.7238 355.379 56.838L356.961 55.6136ZM355.555 52.6307V50.6307H355.214V52.6307V54.6307H355.555V52.6307ZM355.214 52.6307L353.238 52.3171L352.386 57.6865L354.361 58L356.337 58.3135L357.189 52.9442L355.214 52.6307ZM354.361 58V56H342.685V58V60H354.361V58ZM356.918 41.6364L354.944 41.319C354.663 43.0646 354.627 44.6909 354.913 46.1529L356.876 45.7699L358.839 45.3869C358.669 44.5193 358.662 43.3899 358.893 41.9537L356.918 41.6364ZM356.876 45.7699L354.913 46.1575C355.199 47.6028 355.799 48.9074 356.835 49.8992L358.218 48.4545L359.601 47.0099C359.302 46.7232 359.007 46.2381 358.838 45.3823L356.876 45.7699ZM358.218 48.4545L356.851 49.9146C357.955 50.9479 359.349 51.392 360.839 51.392V49.392V47.392C360.169 47.392 359.816 47.2112 359.585 46.9945L358.218 48.4545ZM360.839 49.392V51.392C362.323 51.392 363.7 50.9637 364.91 50.1105L363.758 48.4759L362.605 46.8412C362.083 47.2096 361.514 47.392 360.839 47.392V49.392ZM363.758 48.4759L364.928 50.0979C366.097 49.2547 367.017 48.1032 367.728 46.7331L365.952 45.8125L364.177 44.8919C363.694 45.8229 363.152 46.447 362.588 46.8538L363.758 48.4759ZM365.952 45.8125L367.732 46.7243C368.446 45.3305 368.926 43.7262 369.206 41.9483L367.231 41.6364L365.255 41.3244C365.025 42.7852 364.651 43.965 364.172 44.9007L365.952 45.8125ZM367.231 41.6364L369.206 41.9483C369.484 40.1876 369.529 38.561 369.261 37.1174L367.295 37.4815L365.328 37.8457C365.487 38.7032 365.489 39.8464 365.255 41.3244L367.231 41.6364ZM367.295 37.4815L369.262 37.1217C368.997 35.6707 368.415 34.343 367.361 33.3571L365.995 34.8182L364.629 36.2792C364.881 36.5149 365.167 36.9628 365.327 37.8414L367.295 37.4815ZM365.995 34.8182L367.377 33.3729C366.281 32.3246 364.884 31.8807 363.395 31.8807V33.8807V35.8807C364.066 35.8807 364.402 36.0618 364.612 36.2635L365.995 34.8182ZM363.395 33.8807V31.8807C361.901 31.8807 360.516 32.3222 359.298 33.1872L360.455 34.8182L361.613 36.4492C362.155 36.0641 362.731 35.8807 363.395 35.8807V33.8807ZM360.455 34.8182L359.315 33.1748C358.116 34.0065 357.174 35.1663 356.447 36.5527L358.218 37.4815L359.989 38.4104C360.484 37.4672 361.033 36.8514 361.595 36.4616L360.455 34.8182ZM358.218 37.4815L356.451 36.5438C355.714 37.933 355.224 39.5404 354.943 41.3244L356.918 41.6364L358.894 41.9483C359.123 40.4937 359.5 39.3312 359.984 38.4193L358.218 37.4815Z" fill="#D7D7D7" mask="url(#path-1-outside-1_9_347)"/>
</svg>
