<svg width="30" height="30" viewBox="0 0 30 30" fill="none" xmlns="http://www.w3.org/2000/svg">
<g clip-path="url(#clip0_49_90)">
<path fill-rule="evenodd" clip-rule="evenodd" d="M27 15C27 21.6274 21.6274 27 15 27C8.3726 27 3 21.6274 3 15C3 8.3726 8.3726 3 15 3C21.6274 3 27 8.3726 27 15ZM17.2301 7.53421L8.9052 8.1468C8.23395 8.2049 8 8.6425 8 9.1671V18.2658C8 18.6746 8.1458 19.024 8.4965 19.491L10.4535 22.0282C10.7749 22.4367 11.067 22.5241 11.6808 22.4949L21.3484 21.9115C22.1661 21.8535 22.4 21.4741 22.4 20.8325V10.5963C22.4 10.2646 22.2687 10.1688 21.8816 9.8864C21.8603 9.8709 21.8382 9.8548 21.8153 9.83805L19.1579 7.97169C18.5154 7.50528 18.2524 7.44659 17.2301 7.53421Z" fill="#434343"/>
<path fill-rule="evenodd" clip-rule="evenodd" d="M10.4831 10.1299C10.95 10.5089 11.1252 10.48 12.0019 10.4215L20.2674 9.92562C20.4427 9.92562 20.2969 9.75082 20.2384 9.72182L18.8657 8.73017C18.6027 8.52612 18.2523 8.29247 17.5806 8.35092L9.57719 8.93422C9.28534 8.96312 9.22704 9.10897 9.34329 9.22587L10.4831 10.1299Z" fill="#434343"/>
<path fill-rule="evenodd" clip-rule="evenodd" d="M10.9794 20.745V12.0548C10.9794 11.6757 11.0962 11.5006 11.4465 11.4712L20.9391 10.9173C21.2611 10.8881 21.4069 11.0924 21.4069 11.4712V20.1031C21.4069 20.4825 21.3483 20.8038 20.8224 20.8327L11.7387 21.3579C11.213 21.3868 10.9794 21.2121 10.9794 20.745ZM19.6834 13.0757C19.9468 13.0461 20.0051 12.7837 19.9468 12.5209L17.9309 12.6382C17.6387 12.6671 17.4054 12.9003 17.4637 13.2215L18.2233 13.3086V17.3332L15.244 12.7838L13.0824 12.9294C12.6732 12.9588 12.5274 13.3376 12.5859 13.6003L13.316 13.6587V19.4039L12.7902 19.5495C12.5858 19.6079 12.5273 19.8993 12.5858 20.0161L14.6007 19.8993C15.3316 19.8993 15.3316 19.3746 15.3316 19.3746L14.4257 19.1703V14.8251L17.2886 19.3161C17.6387 19.7533 17.7558 19.8993 18.2233 19.8993C18.5153 19.8993 18.8657 19.7826 19.2457 19.5785V13.1628L19.6834 13.0757Z" fill="#434343"/>
</g>
<defs>
<clipPath id="clip0_49_90">
<rect width="24" height="24" fill="white" transform="translate(3 3)"/>
</clipPath>
</defs>
</svg>
