<svg width="30" height="30" viewBox="0 0 30 30" fill="none" xmlns="http://www.w3.org/2000/svg">
<g clip-path="url(#clip0_49_95)">
<path fill-rule="evenodd" clip-rule="evenodd" d="M15.0136 3.91162C8.79328 3.91162 3.75 8.9549 3.75 15.1771C3.75 20.1538 6.97734 24.3758 11.4539 25.866C12.0173 25.9691 12.2227 25.6213 12.2227 25.3222C12.2227 25.0555 12.2133 24.3468 12.2077 23.4069C9.07406 24.0876 8.41312 21.8966 8.41312 21.8966C7.90078 20.5958 7.16203 20.2494 7.16203 20.2494C6.13922 19.5501 7.23938 19.5641 7.23938 19.5641C8.37 19.6443 8.96484 20.7252 8.96484 20.7252C9.96984 22.4465 11.6016 21.9491 12.2433 21.6613C12.3459 20.9333 12.6361 20.4369 12.9586 20.1552C10.4573 19.8712 7.82719 18.9041 7.82719 14.5879C7.82719 13.3583 8.26641 12.3524 8.98688 11.5649C8.87109 11.2799 8.48437 10.1347 9.09703 8.58365C9.09703 8.58365 10.043 8.28084 12.195 9.73865C13.0936 9.48881 14.0573 9.36365 15.015 9.35943C15.9717 9.36365 16.9355 9.48881 17.8355 9.73865C19.9861 8.28084 20.9302 8.58365 20.9302 8.58365C21.5447 10.1347 21.158 11.2799 21.0422 11.5649C21.7641 12.3524 22.2005 13.3583 22.2005 14.5879C22.2005 18.9154 19.5661 19.8674 17.0564 20.1463C17.4614 20.4941 17.8214 21.1813 17.8214 22.2327C17.8214 23.7383 17.8078 24.9533 17.8078 25.3222C17.8078 25.6241 18.0103 25.9747 18.5822 25.8646C23.055 24.3716 26.2795 20.1524 26.2795 15.1771C26.2795 8.9549 21.2358 3.91162 15.0136 3.91162Z" fill="#434343"/>
</g>
<defs>
<clipPath id="clip0_49_95">
<rect width="30" height="30" fill="white"/>
</clipPath>
</defs>
</svg>
